<svg xmlns="http://www.w3.org/2000/svg" width="504.507" height="451.577" viewBox="0 0 504.507 451.577">
    <defs>
        <style>
            .cls-1{fill:#e7ecf3}.cls-10,.cls-11,.cls-2,.cls-5,.cls-6{fill:#353535}.cls-2{opacity:.07}.cls-3{fill:#fff}.cls-4{fill:#161616}.cls-5{opacity:.06}.cls-6{opacity:.1}.cls-9{fill:#051532}.cls-10{opacity:.09}.cls-11{opacity:.08}
        </style>
    </defs>
    <g id="login" transform="translate(-236.875 -125.553)">
        <g id="background" transform="translate(236.875 125.553)">
            <g id="Group_9850" transform="translate(0 366.242)">
                <g id="Group_9849">
                    <path id="Path_13325" d="M346.889 982.2h-109.4a.642.642 0 0 0 0 1.283h109.4a.642.642 0 0 0 0-1.283z" class="cls-1" transform="translate(-236.875 -982.2)"/>
                </g>
            </g>
            <g id="Group_9852" transform="translate(240.058 358.547)">
                <g id="Group_9851">
                    <path id="Path_13326" d="M798.984 965.483H916.17a.642.642 0 0 0 0-1.283H798.984a.642.642 0 0 0 0 1.283z" class="cls-1" transform="translate(-798.375 -964.2)"/>
                </g>
            </g>
            <g id="Group_9854" transform="translate(364.298 358.547)">
                <g id="Group_9853">
                    <path id="Path_13327" d="M1089.584 965.483h70.157a.642.642 0 0 0 0-1.283h-70.157a.642.642 0 0 0 0 1.283z" class="cls-1" transform="translate(-1088.975 -964.2)"/>
                </g>
            </g>
            <g id="Group_9856" transform="translate(444.743 358.547)">
                <g id="Group_9855">
                    <path id="Path_13328" d="M1277.763 965.483h12.227a.642.642 0 0 0 0-1.283h-12.227a.642.642 0 0 0 0 1.283z" class="cls-1" transform="translate(-1277.137 -964.2)"/>
                </g>
            </g>
            <g id="Group_9858" transform="translate(386.498 314.629)">
                <g id="Group_9857">
                    <path id="Path_13329" d="M1142.183 905.222v-43.138a.642.642 0 0 0-1.283 0v43.138a.642.642 0 0 0 1.283 0z" class="cls-1" transform="translate(-1140.9 -861.475)"/>
                </g>
            </g>
            <g id="Group_9860" transform="translate(386.786 314.597)">
                <g id="Group_9859">
                    <path id="Path_13330" d="M1142.184 862.683h77.383a.642.642 0 0 0 0-1.283h-77.383a.642.642 0 0 0 0 1.283z" class="cls-1" transform="translate(-1141.575 -861.4)"/>
                </g>
            </g>
            <g id="Group_9862" transform="translate(464.393 315.665)">
                <g id="Group_9861">
                    <path id="Path_13331" d="M1323.1 864.541v41.043a.642.642 0 0 0 1.283 0v-41.043a.641.641 0 0 0-1.283 0z" class="cls-1" transform="translate(-1323.1 -863.9)"/>
                </g>
            </g>
            <g id="Group_9864" transform="translate(394.578 319.588)">
                <g id="Group_9863">
                    <path id="Path_13332" d="M1159.8 873.684v30.825a.642.642 0 0 0 1.283 0v-30.825a.642.642 0 0 0-1.283 0z" class="cls-1" transform="translate(-1159.8 -873.075)"/>
                </g>
            </g>
            <g id="Group_9866" transform="translate(404.539 319.844)">
                <g id="Group_9865">
                    <path id="Path_13333" d="M1183.1 874.284v27.961a.642.642 0 0 0 1.282 0v-27.961a.642.642 0 0 0-1.282 0z" class="cls-1" transform="translate(-1183.1 -873.675)"/>
                </g>
            </g>
            <g id="Group_9868" transform="translate(415.527 319.075)">
                <g id="Group_9867">
                    <path id="Path_13334" d="M1208.8 872.484v27.7a.642.642 0 0 0 1.283 0v-27.7a.642.642 0 0 0-1.283 0z" class="cls-1" transform="translate(-1208.8 -871.875)"/>
                </g>
            </g>
            <g id="Group_9870" transform="translate(426.771 320.897)">
                <g id="Group_9869">
                    <path id="Path_13335" d="M1235.1 876.763v28.217a.642.642 0 0 0 1.283 0v-28.217a.642.642 0 0 0-1.283 0z" class="cls-1" transform="translate(-1235.1 -876.137)"/>
                </g>
            </g>
            <g id="Group_9872" transform="translate(437.716 321.426)">
                <g id="Group_9871">
                    <path id="Path_13336" d="M1260.7 877.984v29.029a.642.642 0 0 0 1.282 0v-29.029a.642.642 0 0 0-1.282 0z" class="cls-1" transform="translate(-1260.7 -877.375)"/>
                </g>
            </g>
            <g id="Group_9874" transform="translate(451.311 321.683)">
                <g id="Group_9873">
                    <path id="Path_13337" d="M1292.5 878.584v27.448a.642.642 0 0 0 1.282 0v-27.448a.642.642 0 0 0-1.282 0z" class="cls-1" transform="translate(-1292.5 -877.975)"/>
                </g>
            </g>
            <g id="Group_9876" transform="translate(460.46 322.976)">
                <g id="Group_9875">
                    <path id="Path_13338" d="M1313.9 881.641v24.583a.642.642 0 0 0 1.283 0v-24.583a.641.641 0 0 0-1.283 0z" class="cls-1" transform="translate(-1313.9 -881)"/>
                </g>
            </g>
            <g id="Group_9878" transform="translate(357.896 107.159)">
                <g id="Group_9877">
                    <path id="Path_13339" d="M1074.641 377.483H1201.7a.642.642 0 0 0 0-1.283h-127.059a.641.641 0 1 0 0 1.283z" class="cls-1" transform="translate(-1074 -376.2)"/>
                </g>
            </g>
            <g id="Group_9880" transform="translate(357.896 98.384)">
                <g id="Group_9879">
                    <path id="Path_13340" d="M1075.283 364.707v-8.422a.642.642 0 0 0-1.283 0v8.422a.641.641 0 0 0 1.283 0z" class="cls-1" transform="translate(-1074 -355.675)"/>
                </g>
            </g>
            <g id="Group_9882" transform="translate(357.896 98.737)">
                <g id="Group_9881">
                    <path id="Path_13341" d="M1074.641 357.783h125.907a.642.642 0 0 0 0-1.283h-125.907a.641.641 0 1 0 0 1.283z" class="cls-1" transform="translate(-1074 -356.5)"/>
                </g>
            </g>
            <g id="Group_9884" transform="translate(484.188 99.154)">
                <g id="Group_9883">
                    <path id="Path_13342" d="M1369.4 358.084v8.422a.642.642 0 0 0 1.283 0v-8.422a.642.642 0 0 0-1.283 0z" class="cls-1" transform="translate(-1369.4 -357.475)"/>
                </g>
            </g>
            <g id="Group_9886" transform="translate(366.531 65.763)">
                <g id="Group_9885">
                    <path id="Path_13343" d="M1099.585 279.984a32.3 32.3 0 0 1 .385 8.85c-.385 2.822-1.625 5.344-2.693 7.952a38.755 38.755 0 0 0-3.078 15.348.642.642 0 0 0 1.283 0 42.286 42.286 0 0 1 3.89-16.973 24.579 24.579 0 0 0 1.924-6.242 34.823 34.823 0 0 0-.385-8.935c-.171-.812-1.454-.812-1.326 0z" class="cls-1" transform="translate(-1094.197 -279.375)"/>
                </g>
            </g>
            <g id="Group_9888" transform="translate(371.942 64.951)">
                <g id="Group_9887">
                    <path id="Path_13344" d="M1107.857 279.452a7.02 7.02 0 0 1 4.575-.6c.9.214 1.069.727 1.325 1.5a2.479 2.479 0 0 0 .428.9c.513.641 1.411-.257.9-.9-.342-.428 0-1.283-.47-1.8a3.5 3.5 0 0 0-2.095-.94 8.545 8.545 0 0 0-5.344.77c-.727.3-.085 1.411.684 1.069z" class="cls-1" transform="translate(-1106.855 -277.474)"/>
                </g>
            </g>
            <g id="Group_9890" transform="translate(378.822 66.704)">
                <g id="Group_9889">
                    <path id="Path_13345" d="M1123.012 282.184a25.667 25.667 0 0 0 3.335 14.279c2.864 5.43 3.335 11.073 3.506 17.144.043.812 1.325.812 1.282 0-.171-5.173-.342-10.517-2.48-15.306-1.111-2.522-2.608-4.788-3.42-7.439a22.915 22.915 0 0 1-.94-8.679c.085-.812-1.24-.812-1.283 0z" class="cls-1" transform="translate(-1122.946 -281.575)"/>
                </g>
            </g>
            <g id="Group_9892" transform="translate(397.961 91.831)">
                <g id="Group_9891">
                    <path id="Path_13346" d="M1168.9 346.868c.6-1.154.042-2.394.812-3.378 1.2-1.454 5-1.411 6.712-1.582a63.147 63.147 0 0 1 11.372-.043c3.805.3 7.61.812 11.458.983 1.881.085 3.762.043 5.643 0s7.054.556 5.088 3.762c-.428.684.684 1.368 1.112.641 1.753-2.822-1.154-5.344-3.848-5.686-2.351-.3-4.788.085-7.182 0-2.864-.086-5.729-.385-8.593-.684a76.445 76.445 0 0 0-16.246-.171c-1.881.214-4.7.214-6.327 1.283s-.385 2.693-1.112 4.147c-.385.812.727 1.5 1.112.727z" class="cls-1" transform="translate(-1167.714 -340.347)"/>
                </g>
            </g>
            <g id="Group_9894" transform="translate(413.6 86.203)">
                <g id="Group_9893">
                    <path id="Path_13347" d="M1205.493 333.048c.385-.941.171-1.881.47-2.822.77-2.394 3.8-1.667 5.643-1.667 3.421 0 6.8 0 10.218.043 6.8 0 13.6.043 20.436.043a7.256 7.256 0 0 1-.6-.47c.47 2.18.855 4.361 1.154 6.584.085.812 1.368.812 1.283 0-.3-2.351-.684-4.66-1.2-6.926a.641.641 0 0 0-.6-.47c-8.209-.043-16.46-.043-24.669-.085h-5.942a21.635 21.635 0 0 0-4.7.085c-2.779.641-1.8 3.335-2.608 5.344-.427.77.813 1.112 1.112.342z" class="cls-1" transform="translate(-1204.292 -327.184)"/>
                </g>
            </g>
            <g id="Group_9896" transform="translate(440.313 93.773)">
                <g id="Group_9895">
                    <path id="Path_13348" d="M1267.384 346.476a64.291 64.291 0 0 0 11.116-.3c.812-.085.812-1.368 0-1.283a64.409 64.409 0 0 1-11.116.3c-.812-.085-.812 1.2 0 1.283z" class="cls-1" transform="translate(-1266.775 -344.89)"/>
                </g>
            </g>
            <g id="Group_9898" transform="translate(440.748 86.332)">
                <g id="Group_9897">
                    <path id="Path_13349" d="M1267.838 328.261a17.374 17.374 0 0 1 1.154 6.926c-.043.812 1.24.812 1.282 0a19.1 19.1 0 0 0-1.2-7.268c-.3-.77-1.539-.428-1.24.342z" class="cls-1" transform="translate(-1267.792 -327.485)"/>
                </g>
            </g>
            <g id="Group_9900" transform="translate(458.814 59.18)">
                <g id="Group_9899">
                    <path id="Path_13350" d="M1319.562 264.584v10.688c0 3.378.256 6.926-.385 10.261-.6 3.207-2.309 5.814-4.019 8.508-1.838 2.993-3.505 6.071-5.045 9.235-.342.727.769 1.411 1.111.641a100.987 100.987 0 0 1 5.43-9.876 23.2 23.2 0 0 0 3.719-8.166 52.366 52.366 0 0 0 .428-9.32v-11.971c.043-.812-1.24-.812-1.24 0z" class="cls-1" transform="translate(-1310.049 -263.975)"/>
                </g>
            </g>
            <g id="Group_9902" transform="translate(468.435 58.458)">
                <g id="Group_9901">
                    <path id="Path_13351" d="M1333.513 264.43a6.427 6.427 0 0 1 6.5.086.642.642 0 0 0 .641-1.112 7.584 7.584 0 0 0-7.781-.086c-.727.385-.086 1.5.641 1.112z" class="cls-1" transform="translate(-1332.552 -262.286)"/>
                </g>
            </g>
            <g id="Group_9904" transform="translate(474.723 59.602)">
                <g id="Group_9903">
                    <path id="Path_13352" d="M1347.407 265.577c0 3.933-.043 7.909-.043 11.843a72.874 72.874 0 0 0 .128 9.662c.427 2.993 2.052 5.216 3.8 7.567a23.387 23.387 0 0 1 4.489 9.406c.171.812 1.411.47 1.24-.342a22.7 22.7 0 0 0-3.335-7.995c-1.8-2.693-4.233-4.959-4.831-8.294-.641-3.506-.214-7.354-.214-10.859 0-3.677.043-7.354.043-11.03 0-.77-1.282-.77-1.282.043z" class="cls-1" transform="translate(-1347.262 -264.962)"/>
                </g>
            </g>
            <g id="Group_9906" transform="translate(407.19 121.481)">
                <g id="Group_9905">
                    <path id="Path_13353" d="M1189.3 410.341v48.268a.642.642 0 0 0 1.283 0v-48.268a.641.641 0 1 0-1.283 0z" class="cls-1" transform="translate(-1189.3 -409.7)"/>
                </g>
            </g>
            <g id="Group_9908" transform="translate(408.163 120.968)">
                <g id="Group_9907">
                    <path id="Path_13354" d="M1192.184 409.783h66.823a.642.642 0 0 0 0-1.283h-66.823a.642.642 0 0 0 0 1.283z" class="cls-1" transform="translate(-1191.575 -408.5)"/>
                </g>
            </g>
            <g id="Group_9910" transform="translate(407.361 169.664)">
                <g id="Group_9909">
                    <path id="Path_13355" d="M1190.341 523.683h63.916a.642.642 0 0 0 0-1.283h-63.916a.641.641 0 1 0 0 1.283z" class="cls-1" transform="translate(-1189.7 -522.4)"/>
                </g>
            </g>
            <g id="Group_9912" transform="translate(474.184 121.898)">
                <g id="Group_9911">
                    <path id="Path_13356" d="M1346 411.284v47.8a.642.642 0 0 0 1.283 0v-47.8a.642.642 0 0 0-1.283 0z" class="cls-1" transform="translate(-1346 -410.675)"/>
                </g>
            </g>
            <g id="Group_9914" transform="translate(470.924 169.878)">
                <g id="Group_9913">
                    <path id="Path_13357" d="M1338.984 524.183h2.608a.642.642 0 0 0 0-1.283h-2.608a.642.642 0 0 0 0 1.283z" class="cls-1" transform="translate(-1338.375 -522.9)"/>
                </g>
            </g>
            <g id="Group_9916" transform="translate(412.438 135.376)">
                <g id="Group_9915">
                    <path id="Path_13358" d="M1202.184 443.483l55.707.128a.642.642 0 0 0 0-1.283l-55.707-.128a.642.642 0 0 0 0 1.283z" class="cls-1" transform="translate(-1201.575 -442.2)"/>
                </g>
            </g>
            <g id="Group_9918" transform="translate(414.191 147.774)">
                <g id="Group_9917">
                    <path id="Path_13359" d="M1206.284 472.611l53.826-.128a.642.642 0 0 0 0-1.283l-53.826.128a.642.642 0 0 0 0 1.283z" class="cls-1" transform="translate(-1205.675 -471.2)"/>
                </g>
            </g>
            <g id="Group_9920" transform="translate(415.217 160.387)">
                <g id="Group_9919">
                    <path id="Path_13360" d="M1208.684 501.983h53.484a.642.642 0 0 0 0-1.283h-53.484a.642.642 0 0 0 0 1.283z" class="cls-1" transform="translate(-1208.075 -500.7)"/>
                </g>
            </g>
            <g id="Group_9922" transform="translate(424.42 135.579)">
                <g id="Group_9921">
                    <path id="Path_13361" d="M1229.6 443.284v25.01a.642.642 0 0 0 1.282 0v-25.01a.642.642 0 0 0-1.282 0z" class="cls-1" transform="translate(-1229.6 -442.675)"/>
                </g>
            </g>
            <g id="Group_9924" transform="translate(439.511 135.932)">
                <g id="Group_9923">
                    <path id="Path_13362" d="M1264.9 444.141v23.771a.642.642 0 0 0 1.282 0v-23.771a.641.641 0 0 0-1.282 0z" class="cls-1" transform="translate(-1264.9 -443.5)"/>
                </g>
            </g>
            <g id="Group_9926" transform="translate(454.432 135.408)">
                <g id="Group_9925">
                    <path id="Path_13363" d="M1299.8 442.884v24.156a.642.642 0 0 0 1.282 0v-24.156a.642.642 0 0 0-1.282 0z" class="cls-1" transform="translate(-1299.8 -442.275)"/>
                </g>
            </g>
            <g id="Group_9928" transform="translate(467.985 135.761)">
                <g id="Group_9927">
                    <path id="Path_13364" d="M1331.5 443.741V467.9a.642.642 0 0 0 1.282 0v-24.159a.641.641 0 1 0-1.282 0z" class="cls-1" transform="translate(-1331.5 -443.1)"/>
                </g>
            </g>
            <g id="Group_9930" transform="translate(415.303 150.956)">
                <g id="Group_9929">
                    <path id="Path_13365" d="M1210.895 478.8c-1.667 1.368-3.42 3.548-2.223 5.814a2.846 2.846 0 0 0 2.095 1.582 3.7 3.7 0 0 0 2.95-1.411c.6-.556-.3-1.5-.9-.9-.641.6-1.368 1.325-2.266.9a1.942 1.942 0 0 1-.983-1.753c0-1.368 1.24-2.48 2.223-3.292.641-.556-.256-1.454-.9-.94z" class="cls-1" transform="translate(-1208.277 -478.643)"/>
                </g>
            </g>
            <g id="Group_9932" transform="translate(429.875 150.942)">
                <g id="Group_9931">
                    <path id="Path_13366" d="M1245.028 483.864a2.043 2.043 0 0 1-.171-3.762c1.069-.47 1.454.812 1.582 1.625.128.684-.214 2.437-1.325 1.71-.684-.428-1.325.684-.641 1.112a2.219 2.219 0 0 0 3.164-1.283 4.406 4.406 0 0 0-.3-2.95 2.24 2.24 0 0 0-1.325-1.625c-1.5-.428-3.078.9-3.506 2.266a3.364 3.364 0 0 0 1.838 3.976c.77.385 1.411-.727.684-1.069z" class="cls-1" transform="translate(-1242.36 -478.609)"/>
                </g>
            </g>
            <g id="Group_9934" transform="translate(420.083 150.013)">
                <g id="Group_9933">
                    <path id="Path_13367" d="M1220.16 477.4c-.085-.128-.085-.3.086-.342-.129-.085-.257-.128-.385-.214.171.47-.128.983-.128 1.5a1.116 1.116 0 0 0 .47.9 1.23 1.23 0 0 0 1.838-.47c.171-.385-.385-.684-.556-.342a.582.582 0 0 1-1.111-.342 3.122 3.122 0 0 0 .085-1.411.279.279 0 0 0-.385-.214.857.857 0 0 0-.47 1.283c.214.342.77 0 .556-.342z" class="cls-1" transform="translate(-1219.458 -476.436)"/>
                </g>
            </g>
            <g id="Group_9936" transform="translate(435.318 149.81)">
                <g id="Group_9935">
                    <path id="Path_13368" d="M1255.481 476.875c.427-.086.812-.214 1.24-.3.385-.086.214-.727-.171-.6-.427.086-.812.214-1.24.3-.385.085-.214.727.171.6z" class="cls-1" transform="translate(-1255.093 -475.96)"/>
                </g>
            </g>
            <g id="Group_9938" transform="translate(435.484 150.322)">
                <g id="Group_9937">
                    <path id="Path_13369" d="M1255.489 477.562c.085.214.128.47.214.684a.367.367 0 0 0 .3.257 1.237 1.237 0 0 1 .684 0 .284.284 0 0 1 .171.214c0 .085-.085 0-.043.043-.256-.3-.727.128-.47.47a.689.689 0 0 0 1.154-.47c0-.812-.9-.94-1.5-.855.085.085.214.171.3.257-.085-.214-.128-.47-.214-.684-.085-.513-.684-.342-.6.086z" class="cls-1" transform="translate(-1255.481 -477.16)"/>
                </g>
            </g>
            <g id="Group_9940" transform="translate(429.548 138.86)">
                <g id="Group_9939">
                    <path id="Path_13370" d="M1241.64 450.671a23.658 23.658 0 0 1-.042 5.216c-.043.427.6.427.641 0a26.608 26.608 0 0 0 .042-5.216c-.042-.428-.684-.428-.641 0z" class="cls-1" transform="translate(-1241.595 -450.35)"/>
                </g>
            </g>
            <g id="Group_9942" transform="translate(429.94 139.416)">
                <g id="Group_9941">
                    <path id="Path_13371" d="M1242.806 454.407a2.076 2.076 0 0 0 1.881-2.522c-.085-.385-.6-.257-.641.086a29.852 29.852 0 0 0-.128 4.788.321.321 0 0 0 .641 0 29.747 29.747 0 0 1 .128-4.788c-.214.043-.428.043-.641.086a1.428 1.428 0 0 1-1.283 1.71c-.342.043-.342.684.043.641z" class="cls-1" transform="translate(-1242.512 -451.649)"/>
                </g>
            </g>
            <g id="Group_9944" transform="translate(433.298 137.967)">
                <g id="Group_9943">
                    <path id="Path_13372" d="M1250.936 449c.042-.085.042-.128.085-.214-.085.043-.214.043-.3.086a.421.421 0 0 1 .085.684.333.333 0 0 0 .086.6c.256.043.47.086.727.128-.043-.171-.128-.3-.171-.47a1.516 1.516 0 0 1-.684.684c-.385.171-.214.77.171.6a2.007 2.007 0 0 0 1.068-.983.317.317 0 0 0-.171-.47c-.256-.043-.47-.086-.727-.128.042.214.042.385.085.6a1.03 1.03 0 0 0-.256-1.838.284.284 0 0 0-.3.086.866.866 0 0 0-.256.812c0 .428.6.257.556-.171z" class="cls-1" transform="translate(-1250.366 -448.261)"/>
                </g>
            </g>
            <g id="Group_9946" transform="translate(444.199 139.538)">
                <g id="Group_9945">
                    <path id="Path_13373" d="M1279.9 452.262c-1.967-1.368-4.874 1.881-3.805 3.805a1.95 1.95 0 0 0 2.48.855c.855-.385 1.2-1.582.214-2.052-.042.214-.042.385-.085.6l1.411-.257c.385-.086.214-.684-.171-.6l-1.411.257a.332.332 0 0 0-.086.6c.214.6.086.941-.342.983a.832.832 0 0 1-.555.043 1.322 1.322 0 0 1-.6-.3 1.555 1.555 0 0 1-.085-2.009c.513-.855 1.71-1.967 2.736-1.283.3.128.641-.427.3-.641z" class="cls-1" transform="translate(-1275.864 -451.936)"/>
                </g>
            </g>
            <g id="Group_9948" transform="translate(448.778 139.544)">
                <g id="Group_9947">
                    <path id="Path_13374" d="M1287.868 452.271c.085.641.171 1.325.257 1.967a8.949 8.949 0 0 1 .128.983c0 .214-.043.385-.043.6-.128.6-.513.641-1.026.214.043-.385-.556-.6-.6-.171a1.065 1.065 0 0 0 1.71 1.026 1.889 1.889 0 0 0 .684-1.454 19.856 19.856 0 0 0-.342-3.164c-.171-.427-.812-.427-.77 0z" class="cls-1" transform="translate(-1286.575 -451.95)"/>
                </g>
            </g>
            <g id="Group_9950" transform="translate(449.054 138.822)">
                <g id="Group_9949">
                    <path id="Path_13375" d="M1287.468 450.876a7.416 7.416 0 0 0 2.18.214c.428-.043.428-.684 0-.641a6.4 6.4 0 0 1-2.009-.171.312.312 0 1 0-.171.6z" class="cls-1" transform="translate(-1287.221 -450.26)"/>
                </g>
            </g>
            <g id="Group_9952" transform="translate(442.929 151.876)">
                <g id="Group_9951">
                    <path id="Path_13376" d="M1272.9 481.181a16.151 16.151 0 0 1 0 4.061c-.043.428.6.385.641 0a15.6 15.6 0 0 0-.043-4.233c-.043-.385-.641-.214-.6.171z" class="cls-1" transform="translate(-1272.895 -480.793)"/>
                </g>
            </g>
            <g id="Group_9954" transform="translate(443.154 152.429)">
                <g id="Group_9953">
                    <path id="Path_13377" d="M1273.668 484.872c1.582.513 2.052-1.325 2.052-2.48 0-.427-.6-.385-.641 0-.128 1.411-.214 2.864-.256 4.318a.321.321 0 1 0 .641 0c.043-1.454.129-2.864.257-4.318h-.641c0 .727-.086 2.223-1.24 1.881a.312.312 0 1 0-.171.6z" class="cls-1" transform="translate(-1273.421 -482.087)"/>
                </g>
            </g>
            <g id="Group_9956" transform="translate(445.875 155.641)">
                <g id="Group_9955">
                    <path id="Path_13378" d="M1279.791 489.9a6.124 6.124 0 0 1 .043 1.24c0 .171.171.3.342.342.213 0 .47.043.684.043a.321.321 0 1 0 0-.641c-.214 0-.47-.043-.684-.043l.342.342a11.583 11.583 0 0 0-.043-1.24.407.407 0 0 0-.342-.342c-.214 0-.385.128-.342.3z" class="cls-1" transform="translate(-1279.785 -489.6)"/>
                </g>
            </g>
            <g id="Group_9958" transform="translate(448.394 151.71)">
                <g id="Group_9957">
                    <path id="Path_13379" d="M1286.969 485.363a3.8 3.8 0 0 1-.684-2.052c0-.47.043-1.625.47-1.967.9-.77 1.283 1.411 1.326 1.924a3.765 3.765 0 0 1-.043 1.2c-.042.3-.47 1.71-1.154.812-.257-.342-.685.128-.47.47.684.855 1.753.257 2.095-.556a5.067 5.067 0 0 0-.47-4.233c-.77-1.069-1.667-.427-2.052.556a4.471 4.471 0 0 0 .47 4.147c.171.385.727.043.513-.3z" class="cls-1" transform="translate(-1285.676 -480.406)"/>
                </g>
            </g>
            <g id="Group_9960" transform="translate(457.335 140.078)">
                <g id="Group_9959">
                    <path id="Path_13380" d="M1310.143 453.627a1.925 1.925 0 0 0-2.309-.086 3.517 3.517 0 0 0-1.24 2.736c-.043.941.214 1.881 1.283 2.009s1.8-.727 2.394-1.539c.257-.342-.3-.641-.556-.342-.385.513-.855 1.154-1.582 1.2-.941.043-.941-.983-.9-1.625.086-1.026 1.069-3.035 2.394-1.967.342.342.812-.128.513-.385z" class="cls-1" transform="translate(-1306.59 -453.198)"/>
                </g>
            </g>
            <g id="Group_9962" transform="translate(461.754 140.131)">
                <g id="Group_9961">
                    <path id="Path_13381" d="M1318.2 456.862a2.9 2.9 0 0 1-.556-1.154 2.272 2.272 0 0 1 0-1.411c.214-.085.427-.214.641-.3a1.3 1.3 0 0 1 .385.556 2.766 2.766 0 0 1 .171.556 2.365 2.365 0 0 1 .085.77c-.043.3-.385.941-.812.513-.3-.3-.727.171-.47.47a1.129 1.129 0 0 0 1.8-.385 2.944 2.944 0 0 0-.6-2.822 1.048 1.048 0 0 0-1.8.556 3.508 3.508 0 0 0 .641 3.035c.214.256.77-.043.513-.385z" class="cls-1" transform="translate(-1316.927 -453.323)"/>
                </g>
            </g>
            <g id="Group_9964" transform="translate(463.949 138.707)">
                <g id="Group_9963">
                    <path id="Path_13382" d="M1322.334 450.337a1.87 1.87 0 0 1 .214-.043c-.085 0 0 .6.043.727l.128.256a.794.794 0 0 0 .513.3.864.864 0 0 0 .984-.47c.171-.385-.385-.684-.556-.342a.253.253 0 0 1-.47 0c-.128-.342-.128-.684-.6-.77a.446.446 0 1 0 .214.77c.3-.257-.171-.684-.47-.428z" class="cls-1" transform="translate(-1322.061 -449.99)"/>
                </g>
            </g>
            <g id="Group_9966" transform="translate(415.155 139.16)">
                <g id="Group_9965">
                    <path id="Path_13383" d="M1208.132 451.371a44 44 0 0 0-.128 6.712.321.321 0 1 0 .641 0 58.61 58.61 0 0 1 .129-6.712.321.321 0 0 0-.641 0z" class="cls-1" transform="translate(-1207.931 -451.05)"/>
                </g>
            </g>
            <g id="Group_9968" transform="translate(415.081 139.435)">
                <g id="Group_9967">
                    <path id="Path_13384" d="M1208.587 453.108c.855-.085 1.283.171 1.24.727a2.12 2.12 0 0 1-.085.727 1.7 1.7 0 0 1-1.026 1.368c-.256.086-.342.556 0 .6a4.678 4.678 0 0 1 2.993 1.881c.257.342.812 0 .556-.342a5.474 5.474 0 0 0-3.378-2.18v.6c1.539-.6 2.266-3.249.941-4.446-1.112-.983-2.822.342-1.71 1.454.3.342.769-.086.47-.385z" class="cls-1" transform="translate(-1207.756 -451.695)"/>
                </g>
            </g>
            <g id="Group_9970" transform="translate(419.879 144.317)">
                <g id="Group_9969">
                    <path id="Path_13385" d="M1219.588 463.749a1.906 1.906 0 0 0 .043.684.786.786 0 0 0 .342.6c.385.3.9.086 1.325-.085.385-.171.043-.727-.342-.556a.9.9 0 0 1-.47.171c-.214 0-.214-.171-.214-.385a1.5 1.5 0 0 0-.214-.855.629.629 0 0 0-1.069.214c-.086.428.513.6.6.214z" class="cls-1" transform="translate(-1218.981 -463.113)"/>
                </g>
            </g>
            <g id="Group_9972" transform="translate(457.252 151.986)">
                <g id="Group_9971">
                    <path id="Path_13386" d="M1306.483 481.371c.043 2.009.043 4.019-.085 5.985-.043.342.556.428.641.085.042-.171.085-.342.128-.47.085-.385-.513-.556-.6-.171-.043.171-.086.342-.128.47.214.043.428.043.641.086a55.989 55.989 0 0 0 .086-5.985c-.086-.428-.727-.428-.684 0z" class="cls-1" transform="translate(-1306.395 -481.05)"/>
                </g>
            </g>
            <g id="Group_9974" transform="translate(457.331 151.531)">
                <g id="Group_9973">
                    <path id="Path_13387" d="M1306.589 480.976a25.982 25.982 0 0 0 1.539 5 .328.328 0 0 0 .641-.085c.257-1.881.47-3.72.727-5.6.043-.427-.6-.385-.641 0-.257 1.881-.47 3.719-.727 5.6.214-.043.427-.043.641-.086a25.97 25.97 0 0 1-1.539-5 .332.332 0 0 0-.641.171z" class="cls-1" transform="translate(-1306.58 -479.987)"/>
                </g>
            </g>
            <g id="Group_9976" transform="translate(460.38 155.234)">
                <g id="Group_9975">
                    <path id="Path_13388" d="M1314.691 490.723a1.845 1.845 0 0 1-.342-1.026c.043-.171.256-.513.47-.385.214.086.171.727.128.941s-.3.641-.556.342-.727.128-.47.47a.964.964 0 0 0 1.453-.171 1.892 1.892 0 0 0-.042-2.009.93.93 0 0 0-1.369.171c-.513.6-.128 1.411.171 2.009.214.342.769 0 .556-.342z" class="cls-1" transform="translate(-1313.713 -488.649)"/>
                </g>
            </g>
            <g id="Group_9978" transform="translate(463.06 151.547)">
                <g id="Group_9977">
                    <path id="Path_13389" d="M1319.989 480.314a32.471 32.471 0 0 1 .214 6.114c-.042.427.6.427.641 0a32.5 32.5 0 0 0-.214-6.114c-.085-.385-.727-.385-.641 0z" class="cls-1" transform="translate(-1319.982 -480.025)"/>
                </g>
            </g>
            <g id="Group_9980" transform="translate(463.197 151.512)">
                <g id="Group_9979">
                    <path id="Path_13390" d="M1320.9 481.549c-.043-.342-.086-.812.342-.9s.641.428.684.77a1.961 1.961 0 0 1-.9 1.753.326.326 0 0 0 .342.556c1.069-.684 1.753-2.309.77-3.377a1.067 1.067 0 0 0-1.368-.257 1.53 1.53 0 0 0-.428 1.582c0 .428.641.257.556-.128z" class="cls-1" transform="translate(-1320.301 -479.944)"/>
                </g>
            </g>
            <g id="Group_9982" transform="translate(465.154 150.126)">
                <g id="Group_9981">
                    <path id="Path_13391" d="M1324.974 476.957a1.252 1.252 0 0 0 .3 1.368c.342.3 1.026.427 1.282-.086.171-.385-.385-.684-.556-.342-.043.085.043.043 0 .043h-.128a.514.514 0 0 1-.214-.214.685.685 0 0 1-.043-.641c.085-.171-.086-.342-.214-.385a.5.5 0 0 0-.427.257z" class="cls-1" transform="translate(-1324.88 -476.7)"/>
                </g>
            </g>
            <g id="Group_9984" transform="translate(412.62 135.408)">
                <g id="Group_9983">
                    <path id="Path_13392" d="M1202 442.884v24.839a.642.642 0 0 0 1.282 0v-24.839a.642.642 0 0 0-1.282 0z" class="cls-1" transform="translate(-1202 -442.275)"/>
                </g>
            </g>
            <g id="Group_9986" transform="translate(412.823 160.387)">
                <g id="Group_9985">
                    <path id="Path_13393" d="M1203.084 501.983h55.665a.642.642 0 0 0 0-1.283h-55.665a.642.642 0 0 0 0 1.283z" class="cls-1" transform="translate(-1202.475 -500.7)"/>
                </g>
            </g>
            <g id="Group_9988" transform="translate(3.645 266.104)">
                <g id="Group_9987">
                    <path id="Path_13394" d="M245.4 748.584v33.689a.642.642 0 0 0 1.283 0v-33.689a.642.642 0 0 0-1.283 0z" class="cls-1" transform="translate(-245.4 -747.975)"/>
                </g>
            </g>
            <g id="Group_9990" transform="translate(5.056 266.072)">
                <g id="Group_9989">
                    <path id="Path_13395" d="M249.341 749.183h65.5a.642.642 0 0 0 0-1.283h-65.5a.641.641 0 0 0 0 1.283z" class="cls-1" transform="translate(-248.7 -747.9)"/>
                </g>
            </g>
            <g id="Group_9992" transform="translate(5.056 300.232)">
                <g id="Group_9991">
                    <path id="Path_13396" d="M249.341 829.083h62.291a.642.642 0 0 0 0-1.283h-62.291a.641.641 0 0 0 0 1.283z" class="cls-1" transform="translate(-248.7 -827.8)"/>
                </g>
            </g>
            <g id="Group_9994" transform="translate(70.083 267.045)">
                <g id="Group_9993">
                    <path id="Path_13397" d="M400.8 750.784v30.91a.642.642 0 0 0 1.283 0v-30.91a.642.642 0 0 0-1.283 0z" class="cls-1" transform="translate(-400.8 -750.175)"/>
                </g>
            </g>
            <g id="Group_9996" transform="translate(34.128 248.575)">
                <g id="Group_9995">
                    <path id="Path_13398" d="M316.7 707.584v10.6a.642.642 0 0 0 1.283 0v-10.6a.642.642 0 0 0-1.283 0z" class="cls-1" transform="translate(-316.7 -706.975)"/>
                </g>
            </g>
            <g id="Group_9998" transform="translate(34.587 248.543)">
                <g id="Group_9997">
                    <path id="Path_13399" d="M318.384 708.183h42.454a.642.642 0 0 0 0-1.282h-42.454a.642.642 0 0 0 0 1.282z" class="cls-1" transform="translate(-317.775 -706.9)"/>
                </g>
            </g>
            <g id="Group_10000" transform="translate(35.057 259.616)">
                <g id="Group_9999">
                    <path id="Path_13400" d="M319.484 734.083h41.043a.642.642 0 0 0 0-1.283h-41.043a.642.642 0 0 0 0 1.283z" class="cls-1" transform="translate(-318.875 -732.8)"/>
                </g>
            </g>
            <g id="Group_10002" transform="translate(76.539 250.414)">
                <g id="Group_10001">
                    <path id="Path_13401" d="M415.9 711.884v8.764a.642.642 0 0 0 1.283 0v-8.764a.642.642 0 0 0-1.283 0z" class="cls-1" transform="translate(-415.9 -711.275)"/>
                </g>
            </g>
            <g id="Group_10004" transform="translate(106.679 32.838)">
                <g id="Group_10003">
                    <path id="Path_13402" d="M487.041 204.644a59.235 59.235 0 0 0 8.722-1.026c.812-.171.47-1.411-.342-1.24a61.359 61.359 0 0 1-8.38.983c-.855.043-.855 1.325 0 1.283z" class="cls-1" transform="translate(-486.4 -202.362)"/>
                </g>
            </g>
            <g id="Group_10006" transform="translate(113.854 9.056)">
                <g id="Group_10005">
                    <path id="Path_13403" d="M505.37 170.961a25.226 25.226 0 0 1 .171-14.023c1.2-3.976 4.788-10.9 10.047-8.422 4.446 2.095 5.045 8.38 5.772 12.655a98.191 98.191 0 0 1 1.411 15.434.642.642 0 0 0 1.282 0 104.862 104.862 0 0 0-2.138-19.324c-.9-4.233-2.608-10-7.781-10.517-4.575-.428-7.61 4.1-9.106 7.781a26.491 26.491 0 0 0-.9 16.759.643.643 0 0 0 1.24-.342z" class="cls-1" transform="translate(-503.182 -146.734)"/>
                </g>
            </g>
            <g id="Group_10008" transform="translate(105.622)">
                <g id="Group_10007">
                    <path id="Path_13404" d="M486.053 158.835a31.544 31.544 0 0 1 2.266-20.735c2.779-5.643 8.209-11.159 14.878-11.287 7.353-.128 12.27 6.413 14.322 12.783 2.309 7.14 2.864 15.006 2.822 22.488a.642.642 0 0 0 1.283 0 80.551 80.551 0 0 0-2.266-20.735c-1.368-5.259-3.933-10.432-8.593-13.51-9.79-6.5-20.35 2.009-24.241 11.116a32.933 32.933 0 0 0-1.753 20.265c.214.77 1.454.428 1.283-.385z" class="cls-1" transform="translate(-483.926 -125.553)"/>
                </g>
            </g>
            <g id="Group_10010" transform="translate(133.322 35.969)">
                <g id="Group_10009">
                    <path id="Path_13405" d="M549.01 213.625a6.565 6.565 0 0 0 9.406-3.164c.3-.77-.941-1.112-1.24-.342a5.186 5.186 0 0 1-7.482 2.394.653.653 0 0 0-.684 1.112z" class="cls-1" transform="translate(-548.719 -209.685)"/>
                </g>
            </g>
            <g id="Group_10012" transform="translate(105.653 50.629)">
                <g id="Group_10011">
                    <path id="Path_13406" d="M484 244.584v32.535a.642.642 0 0 0 1.283 0v-32.535a.642.642 0 0 0-1.283 0z" class="cls-1" transform="translate(-484 -243.975)"/>
                </g>
            </g>
            <g id="Group_10014" transform="translate(105.97 41.67)">
                <g id="Group_10013">
                    <path id="Path_13407" d="M485.536 233.528a270.46 270.46 0 0 0 37.665-9.235c.77-.257.427-1.5-.342-1.24a258.914 258.914 0 0 1-37.665 9.235c-.812.128-.428 1.368.342 1.24z" class="cls-1" transform="translate(-484.742 -223.019)"/>
                </g>
            </g>
            <g id="Group_10016" transform="translate(144.687 43.104)">
                <g id="Group_10015">
                    <path id="Path_13408" d="M575.3 226.984v30.483a.642.642 0 0 0 1.283 0v-30.483a.642.642 0 0 0-1.283 0z" class="cls-1" transform="translate(-575.3 -226.375)"/>
                </g>
            </g>
            <g id="Group_10018" transform="translate(106.3 74.889)">
                <g id="Group_10017">
                    <path id="Path_13409" d="M486.32 311.057a240.232 240.232 0 0 0 37.452-9.064c.77-.257.427-1.5-.342-1.24a240.211 240.211 0 0 1-37.452 9.064c-.812.128-.47 1.368.342 1.24z" class="cls-1" transform="translate(-485.514 -300.719)"/>
                </g>
            </g>
            <g id="Group_10020" transform="translate(123.112 54.758)">
                <g id="Group_10019">
                    <path id="Path_13410" d="M527.13 261.529a11.558 11.558 0 0 1-.983-3.548c-.043-1.454.941-3.377 2.651-2.95 2.608.641 1.881 4.831.941 6.456a.642.642 0 0 0 1.111.641c1.411-2.394 1.8-7.867-1.967-8.465a3.675 3.675 0 0 0-3.591 2.138c-.983 1.967-.171 4.233.556 6.114.342.727 1.582.385 1.283-.385z" class="cls-1" transform="translate(-524.837 -253.634)"/>
                </g>
            </g>
            <g id="Group_10022" transform="translate(124.378 60.89)">
                <g id="Group_10021">
                    <path id="Path_13411" d="M527.8 269.61l.513 9.277c.085 1.368.769 2.138 2.309 1.8a3.2 3.2 0 0 0 2.351-2.95 19.977 19.977 0 0 0-.342-4.233 31.419 31.419 0 0 1 0-4.917c.043-.812-1.24-.812-1.283 0a37.724 37.724 0 0 0 0 4.917c.086 1.112 1.154 5.43-.6 5.772-1.8.342-1.325-3.506-1.411-4.575-.085-1.667-.171-3.378-.3-5.045 0-.855-1.283-.855-1.24-.043z" class="cls-1" transform="translate(-527.798 -267.975)"/>
                </g>
            </g>
            <g id="Group_10024" transform="translate(219.376 38.017)">
                <g id="Group_10023">
                    <path id="Path_13412" d="M750 215.084v27.576a.642.642 0 0 0 1.283 0v-27.576a.642.642 0 0 0-1.283 0z" class="cls-1" transform="translate(-750 -214.475)"/>
                </g>
            </g>
            <g id="Group_10026" transform="translate(193.243 67.655)">
                <g id="Group_10025">
                    <path id="Path_13413" d="M689.484 285.083h48.054a.642.642 0 0 0 0-1.283h-48.054a.642.642 0 0 0 0 1.283z" class="cls-1" transform="translate(-688.875 -283.8)"/>
                </g>
            </g>
            <g id="Group_10028" transform="translate(235.622 69.825)">
                <g id="Group_10027">
                    <path id="Path_13414" d="M788 289.484v21.89a.642.642 0 0 0 1.282 0v-21.89a.642.642 0 0 0-1.282 0z" class="cls-1" transform="translate(-788 -288.875)"/>
                </g>
            </g>
            <g id="Group_10030" transform="translate(5.943 162.396)">
                <g id="Group_10029">
                    <path id="Path_13415" d="M251.384 506.683h46.644a.642.642 0 0 0 0-1.283h-46.644a.642.642 0 0 0 0 1.283z" class="cls-1" transform="translate(-250.775 -505.4)"/>
                </g>
            </g>
            <g id="Group_10032" transform="translate(31.391 149.004)">
                <g id="Group_10031">
                    <path id="Path_13416" d="M311.583 486.7v-12.016a.642.642 0 0 0-1.283 0V486.7a.642.642 0 0 0 1.283 0z" class="cls-1" transform="translate(-310.3 -474.075)"/>
                </g>
            </g>
            <g id="Group_10034" transform="translate(46.911 164.523)">
                <g id="Group_10033">
                    <path id="Path_13417" d="M346.6 510.984v14.151a.642.642 0 0 0 1.283 0v-14.151a.642.642 0 0 0-1.283 0z" class="cls-1" transform="translate(-346.6 -510.375)"/>
                </g>
            </g>
            <g id="Group_10036" transform="translate(377.723 244.353)">
                <g id="Group_10035">
                    <path id="Path_13418" d="M1120.984 698.383h57.973a.642.642 0 0 0 0-1.282h-57.973a.642.642 0 0 0 0 1.282z" class="cls-1" transform="translate(-1120.375 -697.1)"/>
                </g>
            </g>
            <g id="Group_10038" transform="translate(413.047 230.961)">
                <g id="Group_10037">
                    <path id="Path_13419" d="M1204.283 679.125v-12.74a.642.642 0 0 0-1.282 0v12.74a.642.642 0 0 0 1.282 0z" class="cls-1" transform="translate(-1203 -665.775)"/>
                </g>
            </g>
            <g id="Group_10040" transform="translate(405.982 230.929)">
                <g id="Group_10039">
                    <path id="Path_13420" d="M1187.084 666.983h45.233a.642.642 0 0 0 0-1.283h-45.233a.642.642 0 0 0 0 1.283z" class="cls-1" transform="translate(-1186.475 -665.7)"/>
                </g>
            </g>
            <g id="Group_10042" transform="translate(40.156 411.774)">
                <g id="Group_10041">
                    <path id="Path_13421" d="M331.441 1089.983h84.223a.642.642 0 0 0 0-1.283h-84.223a.641.641 0 0 0 0 1.283z" class="cls-1" transform="translate(-330.8 -1088.7)"/>
                </g>
            </g>
            <g id="Group_10044" transform="translate(76.143 404.891)">
                <g id="Group_10043">
                    <path id="Path_13422" d="M415.584 1073.883h91.876a.642.642 0 0 0 0-1.283h-91.876a.642.642 0 0 0 0 1.283z" class="cls-1" transform="translate(-414.975 -1072.6)"/>
                </g>
            </g>
            <g id="Group_10046" transform="translate(136.606 427.08)">
                <g id="Group_10045">
                    <path id="Path_13423" d="M557.041 1125.783h56.648a.642.642 0 0 0 0-1.283h-56.648a.641.641 0 0 0 0 1.283z" class="cls-1" transform="translate(-556.4 -1124.5)"/>
                </g>
            </g>
            <g id="Group_10048" transform="translate(210.099 402.582)">
                <g id="Group_10047">
                    <path id="Path_13424" d="M728.941 1068.483h35.229a.642.642 0 0 0 0-1.283h-35.229a.641.641 0 0 0 0 1.283z" class="cls-1" transform="translate(-728.3 -1067.2)"/>
                </g>
            </g>
            <g id="Group_10050" transform="translate(306.55 389.585)">
                <g id="Group_10049">
                    <path id="Path_13425" d="M954.541 1038.083h75.8a.642.642 0 0 0 0-1.283h-75.8a.641.641 0 1 0 0 1.283z" class="cls-1" transform="translate(-953.9 -1036.8)"/>
                </g>
            </g>
            <g id="Group_10052" transform="translate(360.151 371.971)">
                <g id="Group_10051">
                    <path id="Path_13426" d="M1079.884 996.883h90.337a.642.642 0 0 0 0-1.283h-90.337a.642.642 0 0 0 0 1.283z" class="cls-1" transform="translate(-1079.275 -995.6)"/>
                </g>
            </g>
            <g id="Group_10054" transform="translate(412.951 388.816)">
                <g id="Group_10053">
                    <path id="Path_13427" d="M1203.384 1036.283h90.337a.642.642 0 0 0 0-1.283h-90.337a.642.642 0 0 0 0 1.283z" class="cls-1" transform="translate(-1202.775 -1035)"/>
                </g>
            </g>
            <g id="Group_10056" transform="translate(377.733 416.349)">
                <g id="Group_10055">
                    <path id="Path_13428" d="M1121.041 1100.682h40.573a.642.642 0 0 0 0-1.282h-40.573a.641.641 0 1 0 0 1.282z" class="cls-1" transform="translate(-1120.4 -1099.4)"/>
                </g>
            </g>
        </g>
        <g id="machine" transform="translate(261.982 272.875)">
            <path id="Path_13429" d="M446.475 1013.17q-32.193 25.139-64.343 50.277-43.287-18.854-86.532-37.708l91.705-50.277a49.262 49.262 0 0 1 12.569 0c28.004 3.762 43.566 31.938 46.601 37.708z" class="cls-2" transform="translate(-295.6 -759.192)"/>
            <path id="Path_13430" d="M495.883 495.553L494.6 689.566l63.1 39.76q33.475-23.536 66.994-47.114-.193-81.637-.428-163.316-27.9-24.177-55.75-48.4-36.357 12.509-72.633 25.057z" class="cls-3" transform="translate(-409.522 -470.347)"/>
            <g id="Group_10058" transform="translate(147.754 79.39)">
                <g id="Group_10057">
                    <path id="Path_13431" d="M641.2 656.463V835.64a.642.642 0 0 0 1.283 0V656.463a.641.641 0 0 0-1.283 0z" class="cls-4" transform="translate(-641.2 -655.837)"/>
                </g>
            </g>
            <g id="Group_10060" transform="translate(214.191 48.368)">
                <g id="Group_10059">
                    <path id="Path_13432" d="M796.6 583.884q.128 63.809.214 127.661c0 11.928.043 23.813.043 35.741a.642.642 0 0 0 1.283 0q-.128-63.809-.214-127.66c0-11.928-.043-23.813-.043-35.742-.043-.812-1.325-.812-1.283 0z" class="cls-4" transform="translate(-796.598 -583.275)"/>
                </g>
            </g>
            <g id="Group_10062" transform="translate(85.183)">
                <g id="Group_10061">
                    <path id="Path_13433" d="M495.68 495.6q27.7-9.3 55.451-18.6c4.574-1.539 9.106-3.035 13.681-4.575.983-.342 2.18-1.026 3.249-.684.812.257 1.924 1.625 2.608 2.223 1.924 1.667 3.891 3.292 5.814 4.959 7.354 6.242 14.664 12.484 22.018 18.726 8.422 7.182 16.845 14.322 25.267 21.5l.128-1.026q-32.449 16.289-65.5 31.253a4.707 4.707 0 0 0 .77.086c-7.1-6.156-14.194-12.356-21.291-18.512q-17.058-14.814-34.117-29.671c-2.608-2.266-5.173-4.532-7.781-6.8a.664.664 0 0 0-1.112.47v193.386c0 .855-.171 1.582.428 2.181a11.255 11.255 0 0 0 2.052 1.325c1.454.941 2.907 1.838 4.318 2.779q27.319 17.379 54.6 34.715c.47.3.941.6 1.368.9a.582.582 0 0 0 .641 0q33.283-23.664 66.524-47.285c.684-.47.043-1.582-.641-1.112L589.14 706.72q-8.85 6.285-17.657 12.57c-2.907 2.052-5.771 4.1-8.679 6.156-1.24.9-3.164 1.8-4.147 2.95-.3.342-.257.684-.513.684-.6 0-1.924-1.24-2.394-1.539-1.71-1.112-3.42-2.18-5.173-3.292l-15.52-9.876q-16.481-10.517-33.005-20.992c-1.539-.983-3.035-1.924-4.575-2.907a7.474 7.474 0 0 0-1.24-.77c-.3-.128-.556-.556-.3 0 .3.641.128-.3.171-.556.043-.77 0-1.539 0-2.309V501.676a44.641 44.641 0 0 0 0-5.857 4.623 4.623 0 0 1 0-.77c-.385.171-.727.3-1.112.47 7.1 6.156 14.194 12.356 21.291 18.512q17.058 14.814 34.113 29.669c2.608 2.266 5.173 4.532 7.781 6.8a.651.651 0 0 0 .769.086q33.027-15.006 65.5-31.253a.672.672 0 0 0 .128-1.026l-45.66-38.862c-1.838-1.582-3.677-3.121-5.515-4.7-.855-.727-1.71-1.454-2.608-2.223-.684-.556-1.881-2.009-2.736-2.309-.6-.214-1.112.128-1.71.342-1.2.385-2.394.812-3.634 1.2-2.394.812-4.831 1.625-7.225 2.437-9.363 3.121-18.769 6.285-28.132 9.406-10.731 3.591-21.419 7.182-32.15 10.774a.667.667 0 0 0 .47 1.24z" class="cls-4" transform="translate(-494.844 -470.142)"/>
                </g>
            </g>
            <g id="Group_10064" transform="translate(93.586 198.388)">
                <g id="Group_10063">
                    <path id="Path_13434" d="M515.783 960.009v-25.225a.642.642 0 0 0-1.283 0v25.224a.642.642 0 0 0 1.283 0z" class="cls-4" transform="translate(-514.5 -934.175)"/>
                </g>
            </g>
            <g id="Group_10066" transform="translate(93.609 197.207)">
                <g id="Group_10065">
                    <path id="Path_13435" d="M514.872 932.6q15.006 8.4 29.585 17.571c.684.428 1.325-.684.641-1.112q-14.557-9.17-29.585-17.571c-.727-.385-1.368.727-.641 1.112z" class="cls-4" transform="translate(-514.552 -931.413)"/>
                </g>
            </g>
            <g id="Group_10068" transform="translate(121.631 215.062)">
                <g id="Group_10067">
                    <path id="Path_13436" d="M581.766 973.784c-.556 8.764-1.112 17.571-1.667 26.336-.043.812 1.24.812 1.283 0 .556-8.765 1.112-17.572 1.667-26.336.043-.812-1.24-.812-1.283 0z" class="cls-4" transform="translate(-580.098 -973.175)"/>
                </g>
            </g>
            <g id="Group_10070" transform="translate(97.733 207.094)">
                <g id="Group_10069">
                    <path id="Path_13437" d="M525.44 955.163a164.19 164.19 0 0 0-1.24 17.7.642.642 0 0 0 1.283 0 162.655 162.655 0 0 1 1.24-17.7c.128-.855-1.154-.812-1.283 0z" class="cls-4" transform="translate(-524.2 -954.537)"/>
                </g>
            </g>
            <g id="Group_10072" transform="translate(104.145 210.145)">
                <g id="Group_10071">
                    <path id="Path_13438" d="M540.823 962.284c-.769 6.114-1.325 12.227-1.625 18.341-.043.812 1.24.812 1.283 0 .342-6.114.855-12.27 1.625-18.341.128-.812-1.154-.812-1.283 0z" class="cls-4" transform="translate(-539.198 -961.675)"/>
                </g>
            </g>
            <g id="Group_10074" transform="translate(110.772 214.822)">
                <g id="Group_10073">
                    <path id="Path_13439" d="M556.708 973.078c-.941 6.2-1.625 12.441-2.01 18.683-.043.812 1.24.812 1.283 0 .385-6.156 1.026-12.27 1.967-18.341.128-.812-1.112-1.154-1.24-.342z" class="cls-4" transform="translate(-554.698 -972.614)"/>
                </g>
            </g>
            <g id="Group_10076" transform="translate(116.886 217.67)">
                <g id="Group_10075">
                    <path id="Path_13440" d="M570.11 979.884c-.385 5.515-.77 10.988-1.112 16.5-.043.812 1.24.812 1.283 0 .385-5.515.77-10.988 1.112-16.5.043-.812-1.24-.812-1.283 0z" class="cls-4" transform="translate(-568.998 -979.275)"/>
                </g>
            </g>
            <g id="Group_10078" transform="translate(94.445 192.889)">
                <g id="Group_10077">
                    <path id="Path_13441" d="M516.847 922.5Q533.2 931.034 549 940.589a.642.642 0 0 0 .641-1.112c-10.517-6.37-21.248-12.441-32.15-18.085-.727-.385-1.411.727-.641 1.112z" class="cls-4" transform="translate(-516.508 -921.313)"/>
                </g>
            </g>
            <g id="Group_10080" transform="translate(94.27 185.861)">
                <g id="Group_10079">
                    <path id="Path_13442" d="M517.383 912.111v-6.627a.642.642 0 0 0-1.283 0v6.627a.641.641 0 0 0 1.283 0z" class="cls-4" transform="translate(-516.1 -904.875)"/>
                </g>
            </g>
            <g id="Group_10082" transform="translate(94.506 185.122)">
                <g id="Group_10081">
                    <path id="Path_13443" d="M516.972 904.322a284.37 284.37 0 0 1 33.005 18.64c.684.47 1.325-.641.641-1.112a278.222 278.222 0 0 0-33.005-18.64c-.727-.342-1.368.727-.641 1.111z" class="cls-4" transform="translate(-516.652 -903.144)"/>
                </g>
            </g>
            <g id="Group_10084" transform="translate(126.502 204.715)">
                <g id="Group_10083">
                    <path id="Path_13444" d="M592.136 949.584c-.214 1.924-.427 3.891-.641 5.815-.086.812 1.2.812 1.283 0 .214-1.924.427-3.891.641-5.815.086-.812-1.2-.812-1.283 0z" class="cls-4" transform="translate(-591.491 -948.975)"/>
                </g>
            </g>
            <g id="Group_10086" transform="translate(151.682 59.543)">
                <g id="Group_10085">
                    <path id="Path_13445" d="M651.376 634.974c16.631-7.311 32.92-15.434 48.738-24.369.727-.385.086-1.5-.641-1.112q-23.792 13.339-48.738 24.369c-.77.342-.128 1.454.641 1.112z" class="cls-4" transform="translate(-650.387 -609.413)"/>
                </g>
            </g>
            <g id="Group_10088" transform="translate(151.645 83.853)">
                <g id="Group_10087">
                    <path id="Path_13446" d="M650.3 666.884v10.646a.642.642 0 0 0 1.283 0v-10.646a.642.642 0 0 0-1.283 0z" class="cls-4" transform="translate(-650.3 -666.275)"/>
                </g>
            </g>
            <g id="Group_10090" transform="translate(151.881 76.901)">
                <g id="Group_10089">
                    <path id="Path_13447" d="M651.813 668.22q17.379-7.7 33.989-17.016c.727-.385.085-1.5-.641-1.112-11.073 6.2-22.4 11.843-33.989 17.016-.727.342-.085 1.454.641 1.112z" class="cls-4" transform="translate(-650.852 -650.013)"/>
                </g>
            </g>
            <g id="Group_10092" transform="translate(152.329 141.954)">
                <g id="Group_10091">
                    <path id="Path_13448" d="M651.9 802.784v93.073a.642.642 0 0 0 1.283 0v-93.073a.642.642 0 0 0-1.283 0z" class="cls-4" transform="translate(-651.9 -802.175)"/>
                </g>
            </g>
            <g id="Group_10094" transform="translate(155.92 192.488)">
                <g id="Group_10093">
                    <path id="Path_13449" d="M660.3 920.984v50.534a.642.642 0 0 0 1.283 0v-50.534a.642.642 0 0 0-1.283 0z" class="cls-4" transform="translate(-660.3 -920.375)"/>
                </g>
            </g>
            <g id="Group_10096" transform="translate(87.815 34.302)">
                <g id="Group_10095">
                    <path id="Path_13450" d="M501 550.984v65.455a.642.642 0 0 0 1.283 0v-65.455a.642.642 0 0 0-1.283 0z" class="cls-4" transform="translate(-501 -550.375)"/>
                </g>
            </g>
            <g id="Group_10098" transform="translate(91.491 81.63)">
                <g id="Group_10097">
                    <path id="Path_13451" d="M509.6 661.684V737.4a.642.642 0 0 0 1.283 0v-75.716a.642.642 0 0 0-1.283 0z" class="cls-4" transform="translate(-509.6 -661.075)"/>
                </g>
            </g>
            <path id="Path_13452" d="M495.2 529v194.569q31.551 19.88 63.061 39.76V583.083Q526.709 556.084 495.2 529z" class="cls-5" transform="translate(-409.865 -503.836)"/>
            <path id="Path_13453" d="M497.969 582.7c6.37 30.868 12.612 56.52 17.571 75.587 7.7 29.671 11.629 41.214 16.845 53.014a246.062 246.062 0 0 0 26.507 45.874q.385-44.634.727-89.225c2.095 41.6 20.906 67.721 35.827 67.379 12.056-.3 23.856-17.785 30.44-39.076v50.876q-33.155 23.087-66.267 46.216-31.359-19.688-62.719-39.418.513-85.614 1.069-171.227z" class="cls-6" transform="translate(-410.838 -534.578)"/>
        </g>
        <g id="holograme" transform="translate(391.261 260.031)">
            <path id="Path_13454" fill="#c7c7c7" d="M692.9 480.844q-29.628 16.738-59.213 33.476-17.571-23.792-35.186-47.627 33.86-13.275 67.764-26.592 13.335 20.392 26.635 40.743z" opacity="0.39" transform="translate(-598.281 -440.1)"/>
            <g id="Group_10100" opacity="0.39" transform="translate(7.323 20.843)">
                <g id="Group_10099">
                    <path id="Path_13455" d="M615.408 498.193c2.18 1.454 4.361 2.907 6.584 4.361a.651.651 0 0 0 .941-.385 45.241 45.241 0 0 1 4.575-12.356c.385-.727-.727-1.368-1.112-.641a48.328 48.328 0 0 0-4.7 12.7c.3-.128.641-.257.941-.385-2.18-1.454-4.361-2.907-6.584-4.361-.684-.513-1.325.6-.641 1.069z" class="cls-9" transform="translate(-615.116 -488.852)"/>
                </g>
            </g>
            <g id="Group_10102" transform="translate(24.583 18.095)">
                <g id="Group_10101">
                    <path id="Path_13456" d="M656.091 485.492a6.427 6.427 0 0 1 2.95-2.48c.385-.171.043-.727-.342-.556a7.3 7.3 0 0 0-3.164 2.736c-.214.342.342.641.556.3z" class="cls-9" transform="translate(-655.488 -482.424)"/>
                </g>
            </g>
            <g id="Group_10104" transform="translate(24.613 18.339)">
                <g id="Group_10103">
                    <path id="Path_13457" d="M656.175 488.512a7.163 7.163 0 0 1 6.028-4.874c.427-.043.427-.684 0-.641a7.67 7.67 0 0 0-6.627 5.344c-.128.385.47.556.6.171z" class="cls-9" transform="translate(-655.558 -482.995)"/>
                </g>
            </g>
            <g id="Group_10106" transform="translate(25.34 19.889)">
                <g id="Group_10105">
                    <path id="Path_13458" d="M657.875 492.768c.941-3.762 3.591-6.5 7.653-5.173.385.128.556-.47.171-.6-4.361-1.454-7.4 1.5-8.422 5.6-.128.385.47.556.6.171z" class="cls-9" transform="translate(-657.258 -486.621)"/>
                </g>
            </g>
            <g id="Group_10108" transform="translate(26.638 21.157)">
                <g id="Group_10107">
                    <path id="Path_13459" d="M660.9 496.561c.128-2.095.47-4.575 2.48-5.772 1.966-1.154 4.19-.342 5.643 1.2.3.3.727-.171.47-.47a5.264 5.264 0 0 0-5.943-1.539c-2.565 1.112-3.078 4.019-3.25 6.541a.3.3 0 1 0 .6.043z" class="cls-9" transform="translate(-660.295 -489.587)"/>
                </g>
            </g>
            <g id="Group_10110" transform="translate(28.052 22.24)">
                <g id="Group_10109">
                    <path id="Path_13460" d="M664.712 500.448c.428-2.437-1.582-4.66.6-6.755 1.582-1.5 3.591-.727 4.874.641a8.293 8.293 0 0 1 1.838 4.617c.043.385.684.428.641 0-.342-2.822-2.138-7.268-5.815-6.8a4.149 4.149 0 0 0-2.993 2.522c-.812 1.924.6 3.634.257 5.558-.086.427.556.6.6.214z" class="cls-9" transform="translate(-663.601 -492.119)"/>
                </g>
            </g>
            <g id="Group_10112" transform="translate(29.381 23.513)">
                <g id="Group_10111">
                    <path id="Path_13461" d="M667.9 503.135c1.325-2.18-1.454-4.275-.342-6.285 1.154-2.18 3.42-.727 4.19.812a7.915 7.915 0 0 1 .342 5.43c-.085.385.513.556.6.171.641-2.48.385-7.995-3.206-8.166a2.778 2.778 0 0 0-2.651 1.838c-.684 2.052 1.753 3.933.556 5.857a.31.31 0 1 0 .513.342z" class="cls-9" transform="translate(-666.711 -495.096)"/>
                </g>
            </g>
            <g id="Group_10114" transform="translate(30.614 25.008)">
                <g id="Group_10113">
                    <path id="Path_13462" d="M671.05 505.609a5.122 5.122 0 0 0-.3-4.66 5.332 5.332 0 0 1-.427-.855c.94-.641 1.5-.47 1.667.428a4.657 4.657 0 0 1 .342 1.325 7.4 7.4 0 0 1-.47 3.848c-.171.385.47.556.6.171a7.458 7.458 0 0 0 .385-4.617c-.214-.983-.77-2.608-2.009-2.651a1.185 1.185 0 0 0-1.24 1.368 6.125 6.125 0 0 0 .812 1.881 4.483 4.483 0 0 1-.043 3.634c-.086.342.513.513.684.128z" class="cls-9" transform="translate(-669.594 -498.595)"/>
                </g>
            </g>
            <g id="Group_10116" transform="translate(40.61 18.682)">
                <g id="Group_10115">
                    <path id="Path_13463" d="M713.379 520.224c.128-.77.171-1.625-.556-2.095s-1.967 0-2.822-.043a16.336 16.336 0 0 1-4.019-1.026 15.772 15.772 0 0 1-7.14-4.19 7.787 7.787 0 0 1-2.052-3.933c-.171-3.206 1.667-.727 2.95-.385.684.171 1.24.128 1.282-.641.043-.513-.385-.77-.727-1.154-.9-.941-1.753-1.838-2.565-2.865a22.46 22.46 0 0 1-3.677-7.1c-.3-.983-1.282-4.831.641-4.575.9.085 2.437 2.18 2.993 2.864l.47-.47c-1.24-1.582-3.292-3.933-3.164-6.071.214-4.1 4.959-.171 5.814 1.325l.513-.385a5.376 5.376 0 0 1-1.411-2.822c-.086-2.608 1.368-1.625 2.394-.941a15.415 15.415 0 0 1 3.335 3.72.326.326 0 0 0 .556-.342 8.224 8.224 0 0 1-.684-1.8c-.385-.812-.043-1.24 1.112-1.325 1.582-.812 1.454-.6 2.48.513a31.506 31.506 0 0 1 2.993 4.1c1.539 2.394 3.292 4.532 5 6.755a13.473 13.473 0 0 1 2.48 4.788 44.891 44.891 0 0 1 .684 5.3 5.879 5.879 0 0 0 3.121 4.831c.385.171.684-.385.342-.556-4.019-1.924-2.608-8.209-4.233-11.8a19.074 19.074 0 0 0-2.993-4.4 58.017 58.017 0 0 1-4.019-5.6c-1.24-1.924-3.42-6.028-6.071-6.114-2.95-.086-1.411 4.061-.77 5.472.171-.128.385-.214.556-.342-1.069-1.5-3.848-5.686-6.285-4.874-2.138.727.171 4.746.983 5.686.256.3.684-.085.513-.385a7.326 7.326 0 0 0-3.206-3.035c-.855-.385-2.651-1.069-3.463-.214s-.385 2.736-.043 3.72a16.18 16.18 0 0 0 3.078 5.045c.256.342.684-.128.47-.47-.684-.855-2.95-3.848-4.361-3.377-1.2.427-.9 2.993-.812 3.8a19.3 19.3 0 0 0 2.993 7.4 24.24 24.24 0 0 0 2.138 2.907c.385.47 1.2.983 1.454 1.539.812.556.641.727-.556.513-.342-.214-.727-.385-1.069-.6-1.069-.556-1.753-.556-1.967.812-.256 1.838 1.026 4.062 2.138 5.387a14.311 14.311 0 0 0 5.9 3.976 35.307 35.307 0 0 0 4.1 1.325c1.026.256 4.788.085 4.575 1.667-.086.727.556.9.6.47z" class="cls-9" transform="translate(-692.975 -483.797)"/>
                </g>
            </g>
            <g id="Group_10118" transform="translate(44.731 28.672)">
                <g id="Group_10117">
                    <path id="Path_13464" d="M702.694 507.735c1.8 2.18 3.249 4.66 4.831 7.012.214.342.77 0 .556-.342-1.625-2.394-3.121-4.917-4.959-7.14-.257-.3-.684.128-.428.47z" class="cls-9" transform="translate(-702.615 -507.163)"/>
                </g>
            </g>
            <g id="Group_10120" transform="translate(47.413 22.921)">
                <g id="Group_10119">
                    <path id="Path_13465" d="M708.936 494.177c1.753 2.394 3.377 4.831 4.916 7.354a.326.326 0 0 0 .556-.342c-1.539-2.522-3.164-4.959-4.917-7.354-.214-.3-.769 0-.556.342z" class="cls-9" transform="translate(-708.888 -493.712)"/>
                </g>
            </g>
            <g id="Group_10122" transform="translate(0 26.213)">
                <g id="Group_10121">
                    <path id="Path_13466" d="M598.036 501.878q17.251 23.92 35.314 47.242c.256.342.684-.128.47-.47q-18.02-23.279-35.228-47.114c-.214-.3-.77 0-.556.342z" class="cls-9" transform="translate(-597.988 -501.413)"/>
                </g>
            </g>
        </g>
        <g id="guy" transform="translate(440.329 151.225)">
            <g id="leg_back" transform="translate(93.187 182.684)">
                <path id="Path_13467" d="M952.005 1011.011c.684 8.08 1.368 16.118 2.052 24.2q-24.177 10.709-23.3 13.681 1.09 3.591 38.563-4.1c-.513-13.681-1.069-27.4-1.582-41.086-5.216 2.431-10.474 4.868-15.733 7.305z" class="cls-9" transform="translate(-930.725 -836.622)"/>
                <path id="Path_13468" d="M972.09 613.969c2.437 1.625 2.864 5.259 3.72 12.484.427 3.463.641 7.738-.428 20.137-.128 1.325-.471 5.558-1.539 14.664-1.539 13.339-1.967 14.921-2.394 20.564-.342 4.4-.556 9.064-.427 19.068.128 9.534.256 22.573 1.753 40.743 1.111 13.467 2.993 30.227 6.37 49.465a44.007 44.007 0 0 1-8.978 3.506 50.743 50.743 0 0 1-14.023 1.539 74.692 74.692 0 0 1-9.619-.641c-1.24-6.456-2.864-16.161-4.147-28.046-.684-6.156-1.112-12.954-1.967-26.293-1.2-18.683-1.8-28-1.967-35.913-.085-3.506-.085-6.413.428-30.44.77-36.041 1.069-40.444 4.831-46.216 7.481-11.543 22.658-18.469 28.387-14.621z" class="cls-3" transform="translate(-935.119 -612.9)"/>
                <g id="Group_10124" transform="translate(35.143 1.619)">
                    <g id="Group_10123">
                        <path id="Path_13469" d="M1017.959 617.334a215.551 215.551 0 0 1-.641 34.844c-1.154 11.287-3.078 22.445-3.805 33.732-1.5 23.172.043 46.473 2.608 69.516 1.454 12.869 3.207 25.737 5 38.563.128.812 1.368.47 1.24-.342-3.207-23.129-6.413-46.3-7.653-69.645a340.526 340.526 0 0 1-.171-34.331c.6-11.372 2.266-22.531 3.634-33.818a211.3 211.3 0 0 0 1.069-38.563.642.642 0 0 0-1.282.043z" class="cls-4" transform="translate(-1012.925 -616.687)"/>
                    </g>
                </g>
                <g id="Group_10126" transform="translate(2.763 57.332)">
                    <g id="Group_10125">
                        <path id="Path_13470" d="M937.535 747.641a679.344 679.344 0 0 0 3.848 97.349q1.475 13.467 3.549 26.849c.128.812 1.368.47 1.24-.342a681.837 681.837 0 0 1-7.653-96.536q-.128-13.66.342-27.319a.663.663 0 0 0-1.325 0z" class="cls-4" transform="translate(-937.188 -747)"/>
                    </g>
                </g>
                <g id="Group_10128" transform="translate(10.427 177.745)">
                    <g id="Group_10127">
                        <path id="Path_13471" d="M955.578 1034.015a51.814 51.814 0 0 0 32.834-4.19c.727-.342.086-1.454-.641-1.112a50.228 50.228 0 0 1-31.851 4.062c-.812-.171-1.154 1.069-.342 1.24z" class="cls-4" transform="translate(-955.114 -1028.649)"/>
                    </g>
                </g>
                <path id="Path_13472" d="M942.846 674.5c-1.154 8.08-2.223 17.272-2.95 27.447-.427 5.558-1.026 15.092-1.112 27.063-.085 9.961.3 18.384 1.112 34.886.9 18.64 1.368 28.174 2.608 38.563 1.411 11.971 3.164 21.719 4.446 28.174a41.416 41.416 0 0 0 11.885.727 42.4 42.4 0 0 0 8.166-1.5q-5.451-20.393-10-42.667A731.238 731.238 0 0 1 942.846 674.5z" class="cls-10" transform="translate(-935.332 -648.164)"/>
                <path id="Path_13473" d="M939.884 772.6c1.838 15.306 3.463 28.474 4.831 38.948 3.506 27.4 4.617 34.288 7.054 43.009a162.794 162.794 0 0 0 13 32.621 28.082 28.082 0 0 1-11.885.385 27.22 27.22 0 0 1-5.943-1.838c-1.753-10.389-3.249-21.291-4.446-32.621a548.059 548.059 0 0 1-2.611-80.504z" class="cls-10" transform="translate(-935.705 -704.324)"/>
            </g>
            <g id="leg_front" transform="translate(34.342 180.24)">
                <path id="Path_13474" d="M824.6 1031.5c-.6 8.508-1.2 17.058-1.838 25.566q-30.141 7.438-29.671 10.731.513 3.912 44.506 1.839c.9-12.313 1.838-24.669 2.736-36.982-5.258-.427-10.517-.812-15.733-1.154z" class="cls-9" transform="translate(-793.084 -850.093)"/>
                <path id="Path_13475" d="M872.521 613.241a28.473 28.473 0 0 0-4.19 6.114 21.045 21.045 0 0 0-1.924 5.344c-.47 3.206-1.154 7.653-1.924 12.954-1.667 11.586-2.822 20.65-3.42 25.523-2.138 16.888-3.335 27.832-5.729 48.054-3.548 29.884-4.575 36.34-7.225 60.624-.983 9.021-1.8 16.46-2.309 21.334a15.637 15.637 0 0 0 3.933 4.232 23.48 23.48 0 0 0 4.062 2.266c2.48 1.154 5 2.18 6.114 2.565 6.627 2.138 18.6-1.069 19.239-1.24 0-4.66.086-10.945.428-18.427.128-2.993.556-11.073 2.223-26.592 1.5-13.895 2.651-24.882 5.259-39.675 1.881-10.817 3.72-19.068 5.387-26.25 2.522-11.287 5-20.906 7.054-28.388l8.85-17.315c.855-1.24 8.679-12.826 4.233-23.343-6.671-15.988-34.546-13.68-40.061-7.78z" class="cls-3" transform="translate(-823.262 -608.105)"/>
                <g id="Group_10130" transform="translate(21.849)">
                    <g id="Group_10129">
                        <path id="Path_13476" d="M870.146 607.619c-7.995 21.975-9.7 45.7-12.4 68.747q-4.361 37.067-8.679 74.176-2.437 20.778-4.874 41.513c-.086.812 1.2.812 1.283 0q4.3-36.875 8.636-73.749c2.822-24.155 5.3-48.354 8.593-72.423 1.753-12.869 4.19-25.695 8.679-37.922.256-.769-.983-1.111-1.24-.342z" class="cls-4" transform="translate(-844.19 -607.185)"/>
                    </g>
                </g>
                <g id="Group_10132" transform="translate(68.89 35.522)">
                    <g id="Group_10131">
                        <path id="Path_13477" d="M970.115 690.583a143.536 143.536 0 0 0-15.862 34.16c-.256.77.984 1.112 1.24.342a141.828 141.828 0 0 1 15.733-33.86c.428-.684-.684-1.368-1.112-.641z" class="cls-4" transform="translate(-954.219 -690.272)"/>
                    </g>
                </g>
                <g id="Group_10134" transform="translate(55.372 50.921)">
                    <g id="Group_10133">
                        <path id="Path_13478" d="M943.549 726.723a530.734 530.734 0 0 0-19.624 109.661q-1.154 15.968-1.325 31.936a.642.642 0 0 0 1.283 0 529.715 529.715 0 0 1 13-110.687q3.463-15.391 7.909-30.526a.65.65 0 0 0-1.24-.385z" class="cls-4" transform="translate(-922.6 -726.291)"/>
                    </g>
                </g>
                <g id="Group_10136" transform="translate(21.807 184.417)">
                    <g id="Group_10135">
                        <path id="Path_13479" d="M844.266 1039.677a29.035 29.035 0 0 0 34.2 7.653c.769-.342.085-1.454-.641-1.111a27.831 27.831 0 0 1-32.663-7.482c-.556-.6-1.454.3-.9.941z" class="cls-4" transform="translate(-844.091 -1038.54)"/>
                    </g>
                </g>
                <path id="Path_13480" d="M881.128 627.7c5.088 4.66-2.95 20.008-7.781 31.894-7.054 17.358-8.551 46.045-11.5 103.505-.641 12.142-1.325 29.157-1.5 49.722a18.971 18.971 0 0 1-5.173-1.5 22.2 22.2 0 0 1-9.277-7.781c1.2-8.508 2.907-21.376 4.831-37.11 4.4-36.084 5.3-50.876 8.55-76.784 1.838-14.664 4.7-35.7 9.278-61.222l12.572-.724z" class="cls-5" transform="translate(-823.32 -618.929)"/>
                <path id="Path_13481" d="M860.35 759.6c2.266 32.022-.128 52.5-2.95 65.669-2.437 11.287-1.881 23.044-3.335 34.5-.727 5.6-1.71 12.655 2.223 19.281a23.387 23.387 0 0 0 10 8.893 20.48 20.48 0 0 1-11.5-1.112 20.146 20.146 0 0 1-8.892-7.054c2.052-17.785 4.19-35.613 6.285-53.4q4.044-33.477 8.169-66.777z" class="cls-5" transform="translate(-823.32 -694.438)"/>
            </g>
            <g id="hand_back" transform="translate(119.52 86.698)">
                <path id="Path_13482" d="M993.609 389.339c-.9.513-.513 5.515.3 15.391.086.812.128 1.753.257 3.035.3 2.907.684 5.729 1.154 8.764a340.364 340.364 0 0 0 8.593 40.145 259.451 259.451 0 0 0 10.817 29.756 12.607 12.607 0 0 0 5.173 5.173c2.95 1.5 5.6 1.069 9.534.342a32.976 32.976 0 0 0 14.237-6.242c2.565-1.967 5.943-4.575 5.643-7.61a3.745 3.745 0 0 0-2.052-3.121 3.326 3.326 0 0 0-3.591 1.368 49.7 49.7 0 0 0 4.361-7.268c2.18-4.446 2.18-5.985 1.71-7.1a4.088 4.088 0 0 0-1.71-1.924c-.3-.128-.9-.385-2.822 0-2.266.428-2.608.983-4.062 1.026-1.368.043-1.8-.428-2.822-.513-1.325-.128-3.292.385-5.943 3.463a2.782 2.782 0 0 0-1.881-.684c-1.368.043-2.437 1.325-5.173 6.071-.855 1.454-1.924 3.378-3.121 5.729-.6-2.651-1.5-6.755-2.523-11.757-3.506-17.614-2.993-21.034-5.643-33.9-3.719-18.3-7.653-25.951-11.116-31.124-3.335-5.214-7.739-9.959-9.32-9.02z" class="cls-3" transform="translate(-992.761 -388.865)"/>
                <g id="Group_10138">
                    <g id="Group_10137">
                        <path id="Path_13483" d="M993.294 389.8c1.924-.9 4.232 2.522 5.258 3.762a49.335 49.335 0 0 1 3.549 4.917 60.271 60.271 0 0 1 5.088 9.919 115.507 115.507 0 0 1 6.456 23.9c1.5 8.465 2.693 16.973 4.019 25.438 1.154 7.354 1.924 15.177 6.028 21.59.428.684 1.539.043 1.112-.641-3.634-5.643-4.532-12.356-5.515-18.811-1.112-7.268-2.223-14.536-3.378-21.8-2.095-13.211-4.745-26.763-11.586-38.435a58.2 58.2 0 0 0-5.515-7.781c-1.539-1.753-3.549-4.361-6.114-3.164-.812.342-.171 1.454.6 1.112z" class="cls-4" transform="translate(-992.318 -388.389)"/>
                    </g>
                </g>
                <g id="Group_10140" transform="translate(.715 18.794)">
                    <g id="Group_10139">
                        <path id="Path_13484" d="M993.995 432.969A281.256 281.256 0 0 0 1001.22 472c3.249 12.484 7.054 25.352 12.527 37.067 2.308 4.874 6.67 10.261 12.74 8.679a.643.643 0 0 0-.342-1.24c-8.508 2.266-12.185-9.919-14.408-15.69q-4.1-10.774-7.311-21.8a280.887 280.887 0 0 1-9.192-46c-.043-.855-1.325-.9-1.24-.043z" class="cls-4" transform="translate(-993.99 -432.349)"/>
                    </g>
                </g>
                <g id="Group_10142" transform="translate(28.998 73.606)">
                    <g id="Group_10141">
                        <path id="Path_13485" d="M1061.323 574.041c1.111-2.266 2.18-4.575 3.292-6.841 1.154-2.351 2.565-5.643 5.686-5.344.812.086.812-1.2 0-1.283-2.437-.214-4.19 1.368-5.387 3.292-1.839 2.95-3.164 6.37-4.7 9.491-.342.769.727 1.411 1.112.684z" class="cls-4" transform="translate(-1060.145 -560.555)"/>
                    </g>
                </g>
                <g id="Group_10144" transform="translate(35.381 70.848)">
                    <g id="Group_10143">
                        <path id="Path_13486" d="M1076.283 564.919c1.838-3.078 5.344-11.629 10.132-9.021.727.385 1.368-.727.641-1.112-5.857-3.206-9.662 5.729-11.885 9.448a.653.653 0 0 0 1.112.684z" class="cls-4" transform="translate(-1075.075 -554.105)"/>
                    </g>
                </g>
                <g id="Group_10146" transform="translate(39.065 70.636)">
                    <g id="Group_10145">
                        <path id="Path_13487" d="M1084.935 566.216c1.539-2.18 3.121-4.361 4.66-6.541 1.667-2.352 3.89-5.216 7.14-4.746.812.128 1.154-1.112.342-1.24-2.694-.428-4.874.855-6.627 2.822-2.48 2.736-4.489 6.071-6.627 9.064-.513.641.6 1.283 1.112.641z" class="cls-4" transform="translate(-1083.691 -553.608)"/>
                    </g>
                </g>
                <g id="Group_10148" transform="translate(42.891 70.774)">
                    <g id="Group_10147">
                        <path id="Path_13488" d="M1093.693 567.342c1.839-2.18 3.634-4.4 5.473-6.584 1.069-1.282 5.344-7.909 7.14-3.976.47.983-.3 2.993-.641 3.976a29.149 29.149 0 0 1-1.8 3.677 52.033 52.033 0 0 1-4.831 7.61c-.513.641.385 1.539.9.9a56.991 56.991 0 0 0 6.028-9.748c1.068-2.138 2.736-6.028 1.068-8.294s-4.532-.043-5.814 1.411c-2.907 3.292-5.643 6.755-8.422 10.132-.513.6.385 1.5.9.9z" class="cls-4" transform="translate(-1092.642 -553.932)"/>
                    </g>
                </g>
                <g id="Group_10150" transform="translate(51.168 70.672)">
                    <g id="Group_10149">
                        <path id="Path_13489" d="M1112.641 554.935a8.92 8.92 0 0 1 1.838.47.612.612 0 0 0 .77-.428.647.647 0 0 0-.428-.77 9.023 9.023 0 0 0-2.18-.513c-.342-.043-.641.342-.641.641a.651.651 0 0 0 .641.6z" class="cls-4" transform="translate(-1112 -553.692)"/>
                    </g>
                </g>
                <g id="Group_10152" transform="translate(32.26 85.157)">
                    <g id="Group_10151">
                        <path id="Path_13490" d="M1087.88 589.636c.984-1.24 2.907-.385 3.292.983a4.183 4.183 0 0 1 .043 1.924 7.914 7.914 0 0 1-2.18 3.677 26.321 26.321 0 0 1-6.071 4.788 34.227 34.227 0 0 1-14.579 4.233c-.812.043-.812 1.325 0 1.283 7.7-.556 15.263-3.207 20.864-8.679 2.052-2.009 4.1-4.831 3.078-7.867-.77-2.309-3.677-3.378-5.344-1.283-.556.684.385 1.582.9.94z" class="cls-4" transform="translate(-1067.775 -587.572)"/>
                    </g>
                </g>
                <path id="Path_13491" d="M995.266 391.2c.941 3.377 2.309 8.593 3.891 15.006 4.062 16.631 6.712 30.611 11.672 51.218 5 20.778 6.883 25.481 11.5 27.276 5.13 1.967 15.263.983 21.59-4.275 2.009-1.667 4.019-4.062 5.045-3.506 1.069.6.77 4.1-.6 6.8-2.565 5.13-8.593 6.883-14.408 8.551-4.746 1.368-7.14 2.052-10.133 1.154-4.4-1.325-6.926-5-8.166-6.8-1.539-2.266-1.8-3.591-3.89-9.363-2.138-5.943-2.309-5.772-3.891-10.133a204.891 204.891 0 0 1-6.242-21.034c-2.437-9.748-4.66-18.769-5.857-30.953a185.508 185.508 0 0 1-.511-23.941z" class="cls-11" transform="translate(-993.905 -389.998)"/>
                <path id="Path_13492" d="M1041.5 603.514a23.814 23.814 0 0 0 15.947 7.182c10.346.385 16.93-6.37 17.914-7.4a21.2 21.2 0 0 1-7.012 7.183 22.718 22.718 0 0 1-6.627 2.736c-5.857 1.71-9.662 2.779-13.253 1.154-5.469-2.433-6.755-9.658-6.969-10.855z" class="cls-5" transform="translate(-1020.473 -511.419)"/>
            </g>
            <g id="torso" transform="translate(77.187 83.559)">
                <path id="Path_13493" fill="#2beaed" d="M933.317 381.112c-4.575-.556-8.893 2.565-11.244 4.275-6.541 4.746-9.064 11.458-10.218 14.365-7.054 17.657-9.106 39.033-10 47.071a261.226 261.226 0 0 1-8.55 42.667 49.244 49.244 0 0 0 32.193 10.988A48.434 48.434 0 0 0 953.752 490c.941-17.144 1.069-31.594.984-42.411-.214-19.752-.9-28.815-3.891-39.247-2.308-8.033-7.481-26.032-17.528-27.23z" transform="translate(-893.3 -381.047)"/>
                <path id="Path_13494" d="M977.011 382.94c-4.275 4.19 5.943 20.521 7.61 24.326 7.7 17.529 11.244 45.874-7.14 93.33a54.219 54.219 0 0 0 8.337-2.223 57.31 57.31 0 0 0 14.75-7.61c.3-3.121.684-7.311.984-12.27.47-7.909.513-14.408.47-19.88-.086-16.674-.128-25.01-1.454-36.083a100.738 100.738 0 0 0-7.14-27.49c-2.95-6.883-5.986-11.672-10.817-12.783-.598-.172-3.932-.942-5.6.683z" class="cls-11" transform="translate(-940.629 -381.549)"/>
                <path id="Path_13495" fill="#353535" d="M1012.03 499.2c-.855-.086-1.967 7.738-3.933 17.914a363.254 363.254 0 0 1-13 48.867c2.437-.94 5-2.009 7.61-3.206 3.207-1.454 6.242-2.95 9.107-4.4 1.841-49.001 1.199-59.09.216-59.175z" opacity="0.05" transform="translate(-951.577 -448.685)"/>
            </g>
            <g id="hand_front" transform="translate(0 88.715)">
                <path id="Path_13496" d="M820.82 395.215a6.33 6.33 0 0 0-3.42-.342c-1.283 1.539-3.292 3.976-5.729 6.969-10.731 13.382-11.672 16.5-19.153 25.053-7.183 8.209-12.142 12.056-15.819 14.536a56.457 56.457 0 0 1-8.166 4.617 52.331 52.331 0 0 1-17.016 4.318 20.209 20.209 0 0 1-4.831-3.206 23.417 23.417 0 0 1-4.489-6.071c-4.233-7.14-5.387-9.192-6.969-9.149-.556 0-1.454.3-2.565 1.967a22.454 22.454 0 0 1-1.967-1.582c-2.009-1.8-2.565-2.864-4.233-3.591a2.82 2.82 0 0 0-2.48-.257 2.613 2.613 0 0 0-1.026 1.838 7.593 7.593 0 0 0-4.959-2.48c-.684-.043-1.667-.085-2.138.513-.727.855-.043 2.907 1.753 5.045-.428-.128-2.48-.812-3.335.128-.941.983.043 3.164.684 4.575 1.283 2.864 2.95 4.318 6.413 8.166 1.411 1.582 2.522 2.864 3.249 3.677a12.223 12.223 0 0 1-3.164-.77c-1.924-.77-2.565-1.667-3.42-1.411-.941.3-1.454 1.881-1.283 3.121a4.249 4.249 0 0 0 2.351 2.736 48.411 48.411 0 0 0 12.869 4.959 85.086 85.086 0 0 0 8.764 1.924 57.515 57.515 0 0 0 10.6.342 120.289 120.289 0 0 0 24.455-3.719 78.386 78.386 0 0 0 13.51-4.532 64.419 64.419 0 0 0 23.9-17.571c4.916-5.857 7.012-10.688 11.244-20.308a18.978 18.978 0 0 0 1.71-6.712c.218-4.446-1.021-11.073-5.34-12.783z" class="cls-3" transform="translate(-713.407 -394.063)"/>
                <g id="Group_10154" transform="translate(37.373)">
                    <g id="Group_10153">
                        <path id="Path_13497" d="M869.873 393.36c-2.95-1.112-5.173 1.667-6.841 3.719-2.394 2.907-4.66 5.9-6.926 8.935-4.917 6.627-9.662 13.424-15.092 19.709-10.261 11.971-23.771 22.531-40.231 22.916a.642.642 0 0 0 0 1.283c14.878-.342 27.7-8.85 37.58-19.367a191.069 191.069 0 0 0 14.109-17.486c2.351-3.207 4.7-6.413 7.1-9.577 1.411-1.838 2.865-3.677 4.318-5.472 1.325-1.625 3.164-4.275 5.6-3.377.812.214 1.112-1.026.385-1.283z" class="cls-4" transform="translate(-800.175 -393.107)"/>
                    </g>
                </g>
                <g id="Group_10156" transform="translate(2.347 12.487)">
                    <g id="Group_10155">
                        <path id="Path_13498" d="M827.932 422.778c-5.643 38.82-50.363 56.519-85.378 52.586a54.528 54.528 0 0 1-16.8-4.4 25.731 25.731 0 0 1-3.848-2.095 6 6 0 0 1-1.411-1.112 1.42 1.42 0 0 1-.342-2.352c.086-1.154.642-1.5 1.71-1.069 2.095.47 3.42 2.266 5.686 2.309a.642.642 0 0 0 0-1.283c-2.309-.043-3.805-2.223-6.071-2.394a2.8 2.8 0 0 0-3.206 2.437c-.427 3.933 5.515 6.114 8.337 7.311 10.475 4.361 22.189 4.959 33.347 4.019 20.607-1.753 41.6-9.192 55.536-25.01a55.668 55.668 0 0 0 13.638-28.6c.171-.812-1.069-1.154-1.2-.342z" class="cls-4" transform="translate(-718.249 -422.314)"/>
                    </g>
                </g>
                <g id="Group_10158" transform="translate(0 37.961)">
                    <g id="Group_10157">
                        <path id="Path_13499" d="M724.747 499.685c-1.026-1.881-2.651-3.078-4.147-4.532a33.458 33.458 0 0 1-5.344-7.7 11.363 11.363 0 0 1-.983-2.223c-.556-1.069-.214-1.454.94-1.112a1.316 1.316 0 0 1 1.71.428 16.483 16.483 0 0 1 2.95 2.779 44.367 44.367 0 0 1 5.558 7.054c.428.684 1.539.043 1.112-.641-1.283-1.967-11.159-15.648-13.467-10.816-1.368 2.779 2.052 6.755 3.378 8.892a22.561 22.561 0 0 0 3.249 4.275c1.411 1.368 2.993 2.48 3.976 4.275.342.684 1.454.043 1.069-.684z" class="cls-4" transform="translate(-712.758 -481.899)"/>
                    </g>
                </g>
                <g id="Group_10160" transform="translate(1.499 32.748)">
                    <g id="Group_10159">
                        <path id="Path_13500" d="M720.641 476.971c-.556-.556-4.7-5.643-2.052-5.943.6-.086 2.138 1.2 2.651 1.539a18.567 18.567 0 0 1 2.48 2.052 53.446 53.446 0 0 1 7.225 8.893c.47.684 1.582.043 1.112-.641-3.292-4.66-7.054-10.389-12.484-12.783-1.325-.6-3.121-.684-3.292 1.154-.214 2.352 1.881 5.173 3.42 6.67.641.556 1.539-.342.94-.941z" class="cls-4" transform="translate(-716.265 -469.705)"/>
                    </g>
                </g>
                <g id="Group_10162" transform="translate(9.035 33.485)">
                    <g id="Group_10161">
                        <path id="Path_13501" d="M735.9 475.82a5.656 5.656 0 0 1-.641-1.8c.47-.385.94-.812 1.411-1.2.3.171.641.3.941.47a14.97 14.97 0 0 1 3.292 2.864c1.967 2.223 3.677 4.7 5.473 7.054.513.641 1.625 0 1.111-.641-2.736-3.548-5.558-8.721-9.833-10.688-.941-.427-2.266-.77-3.121 0-1.283 1.112-.342 3.121.171 4.318.256.727 1.5.385 1.2-.385z" class="cls-4" transform="translate(-733.891 -471.429)"/>
                    </g>
                </g>
                <g id="Group_10164" transform="translate(18.8 36.977)">
                    <g id="Group_10163">
                        <path id="Path_13502" d="M758.172 483.231c-.342-1.069-.641-1.325.727-1.454 1.2-.085 1.24.171 1.967.941.9 1.026 1.71 2.095 2.522 3.164 1.368 1.881 2.651 3.848 4.062 5.772 2.181 2.95 5.045 7.1 8.978 7.653.812.128 1.154-1.112.342-1.24-3.549-.513-6.242-4.361-8.209-7.054-1.8-2.437-3.463-5.045-5.3-7.439-1.069-1.325-2.693-4.062-4.7-3.976-2.138.086-2.01 2.522-1.539 3.976.171.77 1.411.427 1.154-.342z" class="cls-4" transform="translate(-756.732 -479.595)"/>
                    </g>
                </g>
                <path id="Path_13503" d="M825.3 406.781c-1.026-.3-2.694 4.062-5.9 9.7a91.09 91.09 0 0 1-16.161 20.992c-13.3 13.168-19.966 19.795-31.595 23.258-4.147 1.24-23.3 6.37-41-4.7A47.453 47.453 0 0 1 715 439.7a3.228 3.228 0 0 0-1.026 1.924c-.171 1.24.641 2.18 1.582 3.463a16.605 16.605 0 0 1 1.838 3.249 17.089 17.089 0 0 0 .94 1.454c1.454 2.009 6.584 6.669 6.242 7.14-.128.171-1.112-.3-3.121-1.2-1.967-.9-2.309-1.154-2.95-1.026a2.973 2.973 0 0 0-2.266 2.779c.043 1.154 1.026 1.924 1.924 2.608a7.109 7.109 0 0 0 2.266 1.2c3.762 1.283 4.7 2.138 7.995 3.121A87.366 87.366 0 0 0 779.638 463a76.415 76.415 0 0 0 26.208-14.408c5.216-4.446 13.168-11.372 17.358-22.916 3.206-8.763 3.548-18.511 2.096-18.895z" class="cls-11" transform="translate(-713.438 -400.926)"/>
                <path id="Path_13504" d="M740.4 521.629a106.453 106.453 0 0 0 24.669 2.437A109.947 109.947 0 0 0 816.287 510a74.48 74.48 0 0 1-27.276 14.408c-22.617 6.37-41.728-.086-48.611-2.779z" class="cls-5" transform="translate(-728.582 -460.025)"/>
            </g>
            <g id="head" transform="translate(68.457)">
                <path id="Path_13505" d="M886.94 244.1c-.043.086-1.539 2.608-4.489 7.7-3.42 5.857-4.831 8.294-6.242 11.757a57.056 57.056 0 0 0-2.009 5.814l5.643 2.309a29.677 29.677 0 0 0 2.736 9.406c1.582 3.249 3.848 7.995 8.978 10.3a15.334 15.334 0 0 0 6.242 1.325 15.826 15.826 0 0 0 8.123-2.309 24.672 24.672 0 0 0 1.753 5.943 24.135 24.135 0 0 0 2.608 4.66c4.019-1.539 8.038-3.078 12.014-4.66a25.644 25.644 0 0 1-3.463-7.824 27.367 27.367 0 0 1-.727-8.422c.3-5.173 1.753-7.866 3.335-12.74 2.437-7.61 3.891-12.056 3.207-16.8-.9-6.156-5.515-13.253-12.612-15.819-10.176-3.724-20.737 3.501-25.097 9.36z" class="cls-3" transform="translate(-873.636 -213.145)"/>
                <path id="Path_13506" fill="#31415f" d="M883.512 221.513c-2.651-1.026-3.249-6.242-2.736-9.7a15.163 15.163 0 0 1 3.933-7.995c4.232-4.66 8.722-4.617 15.22-7.4a45.8 45.8 0 0 0 14.194-9.7c-.812 2.437-1.625 4.831-2.479 7.268a13.32 13.32 0 0 0 7.524-1.582 13.618 13.618 0 0 0 5.943-6.8c.684 1.069 3.506 5.729 2.009 11.03a12.513 12.513 0 0 1-1.753 3.634 17.812 17.812 0 0 0 7.995-4.361c2.907-2.864 3.292-5.472 4.489-5.344 2.309.214 3.164 9.619 3.634 14.793.3 3.42.769 5.814-.128 8.679-.812 2.651-2.352 4.66-2.181 4.788.3.171 4.618-6.926 5.815-6.37.727.342-.556 3.078-1.026 8.251-.556 6.327.727 7.525-.428 12.014a30.373 30.373 0 0 1-2.736 6.541 29.243 29.243 0 0 1-5.943 8.251c-2.779 2.565-6.2 5.686-10.432 5.088-5.515-.812-8.08-7.354-8.251-7.824.47 0 4.7-.214 6.8-3.463 2.651-4.147 0-10.3-3.035-11.33-2.223-.77-3.976 1.5-6.071.428-1.71-.855-1.924-2.95-2.608-4.917-.9-2.608-2.864-6.071-7.7-9.577a26.066 26.066 0 0 0-12.185 2.309c-4.102 1.835-5.855 4.058-7.864 3.289z" transform="translate(-877.304 -185.6)"/>
                <g id="Group_10166" transform="translate(0 42.931)">
                    <g id="Group_10165">
                        <path id="Path_13507" d="M878.7 286.308a47.228 47.228 0 0 0-5.344 10.945c-.3.9-.812 1.838-.171 2.608.47.556 1.625.727 2.266.983 1.069.385 2.138.812 3.207 1.2.769.3 1.112-.941.342-1.24-.727-.256-1.411-.513-2.138-.812a8.52 8.52 0 0 1-2.138-.812c-.9-.9.385-3.121.769-4.062a46.645 46.645 0 0 1 4.318-8.166c.471-.684-.641-1.325-1.112-.641z" class="cls-4" transform="translate(-872.88 -286.016)"/>
                    </g>
                </g>
                <g id="Group_10168" transform="translate(5.489 57.68)">
                    <g id="Group_10167">
                        <path id="Path_13508" d="M885.753 321.32c2.351 8.209 5.3 17.358 13.681 21.248.727.342 1.411-.769.641-1.112-8.038-3.762-10.817-12.569-13.082-20.479a.643.643 0 0 0-1.24.342z" class="cls-4" transform="translate(-885.719 -320.514)"/>
                    </g>
                </g>
                <g id="Group_10170" transform="translate(18.954 71.072)">
                    <g id="Group_10169">
                        <path id="Path_13509" d="M917.678 360.629c7.482 1.667 15.861-2.352 20.863-7.7.556-.6-.342-1.5-.9-.9-4.7 5-12.612 8.935-19.624 7.354a.643.643 0 0 0-.342 1.24z" class="cls-4" transform="translate(-917.214 -351.838)"/>
                    </g>
                </g>
                <g id="Group_10172" transform="translate(31.684 76.945)">
                    <g id="Group_10171">
                        <path id="Path_13510" d="M946.995 366.184a20.542 20.542 0 0 0 4.233 10.132c.513.641 1.411-.257.9-.9a19.254 19.254 0 0 1-3.848-9.235c-.086-.812-1.368-.812-1.283 0z" class="cls-4" transform="translate(-946.99 -365.575)"/>
                    </g>
                </g>
                <g id="Group_10174" transform="translate(43.912 71.43)">
                    <g id="Group_10173">
                        <path id="Path_13511" d="M975.595 353.284a19.1 19.1 0 0 0 4.532 11.329c.513.641 1.454-.3.9-.9a17.74 17.74 0 0 1-4.19-10.432c-.043-.812-1.326-.812-1.24 0z" class="cls-4" transform="translate(-975.591 -352.675)"/>
                    </g>
                </g>
                <g id="Group_10176" transform="translate(36.387 43.516)">
                    <g id="Group_10175">
                        <path id="Path_13512" d="M959.192 290.342a3.816 3.816 0 0 1 5.43-.941 6.422 6.422 0 0 1 2.608 5c.214 3.035-1.753 9.192-6.028 7.354-.769-.342-1.411.77-.641 1.112 5.558 2.394 8.508-4.917 7.867-9.32a7.066 7.066 0 0 0-4.361-5.857 5.021 5.021 0 0 0-5.943 2.009c-.513.684.6 1.325 1.069.641z" class="cls-4" transform="translate(-957.99 -287.386)"/>
                    </g>
                </g>
                <g id="Group_10178" transform="translate(31.909 72.374)">
                    <g id="Group_10177">
                        <path id="Path_13513" d="M948.45 361.774a26.843 26.843 0 0 0 6.455-5.774c.513-.641-.385-1.539-.9-.9a26.69 26.69 0 0 1-6.2 5.6c-.684.428-.043 1.539.641 1.069z" class="cls-4" transform="translate(-947.516 -354.884)"/>
                    </g>
                </g>
                <g id="Group_10180" transform="translate(8.848 60.151)">
                    <g id="Group_10179">
                        <path id="Path_13514" d="M894.184 333.095a9.753 9.753 0 0 0 7.952-2.993c1.325-1.454 1.838-3.891-.855-3.805-.684.043-.9 1.069-.171 1.24a6.307 6.307 0 0 1 2.608 1.325c.641.513 1.539-.385.9-.9a7.46 7.46 0 0 0-3.164-1.625c-.043.428-.128.855-.171 1.24 1.454-.043-.47 2.052-.641 2.223a8.009 8.009 0 0 1-2.223 1.368 8.419 8.419 0 0 1-4.233.641c-.812-.043-.812 1.24 0 1.283z" class="cls-4" transform="translate(-893.575 -326.295)"/>
                    </g>
                </g>
                <g id="Group_10182" transform="translate(12.976 42.65)">
                    <g id="Group_10181">
                        <path id="Path_13515" d="M905.356 290.336a5.549 5.549 0 0 1-.642-4.1c-.3.128-.641.256-.94.385 1.154.9.9 2.565.727 3.8a10.75 10.75 0 0 0 1.154-.171 4 4 0 0 1-.769-2.394.642.642 0 0 0-1.283 0 5.108 5.108 0 0 0 .94 3.035c.3.385 1.069.428 1.155-.171.3-1.924.385-3.933-1.325-5.259a.628.628 0 0 0-.941.385 6.633 6.633 0 0 0 .77 5.088c.47.77 1.582.128 1.154-.6z" class="cls-4" transform="translate(-903.231 -285.358)"/>
                    </g>
                </g>
                <g id="Group_10184" transform="translate(11.462 36.15)">
                    <g id="Group_10183">
                        <path id="Path_13516" d="M900.764 272.568c2.095-2.48 5.13-.6 6.242 1.753.342.727 1.454.085 1.112-.641-1.454-3.078-5.643-5.045-8.251-2.009-.556.641.342 1.539.9.9z" class="cls-4" transform="translate(-899.691 -270.155)"/>
                    </g>
                </g>
                <path id="Path_13517" d="M925.326 274.1c.171.983.385 2.522.727 4.318.94 5.088 1.753 7.995 2.052 9.363a21.442 21.442 0 0 1-5.643 18.512c-5.857 5.772-13.852 5.643-15.861 5.558a12.015 12.015 0 0 0 4.361 3.335c6.242 2.736 12.569-1.24 13.253-1.71-.086 2.779.513 3.72 1.112 4.019 1.838.812 5.943-2.993 7.738-7.1a15.6 15.6 0 0 0 .427-10.474c-2.394-3.292-2.522-4.446-2.18-4.831.513-.556 1.924.47 3.506-.086 1.667-.641 2.351-2.651 2.779-3.891.556-1.667 2.052-6.2-.727-8.85-1.753-1.667-4.617-1.967-7.311-1.026a3.176 3.176 0 0 1-1.838-.941c-.727-.77-.727-1.667-1.112-3.206a15.543 15.543 0 0 0-1.283-2.99z" class="cls-2" transform="translate(-892.184 -236.264)"/>
                <path id="Path_13518" d="M961.652 330.537a34.282 34.282 0 0 1-2.052 8.85c1.5-.428 3.035-.9 4.532-1.325 1.283 3.377 2.523 6.8 3.8 10.175.941-.47 1.839-.941 2.779-1.454a53.382 53.382 0 0 1-2.992-8.764 52.513 52.513 0 0 1-1.325-7.909 18.072 18.072 0 0 1-2.351-2.779 20.347 20.347 0 0 1-2.565-5.13 39.772 39.772 0 0 1 .174 8.336z" class="cls-6" transform="translate(-922.525 -263.799)"/>
                <path id="Path_13519" fill="#353535" d="M988.083 216.3c-.6 0-.214 5.9-2.736 13.082a29.784 29.784 0 0 1-8.08 12.954 27.354 27.354 0 0 1-9.662 5.558 7.2 7.2 0 0 1 2.437 2.351c1.881 2.993.684 6.37.342 7.354a6.573 6.573 0 0 1-2.907 4.1 5.627 5.627 0 0 1-3.976.342c.128.385 2.822 7.482 8.422 8.08a9.761 9.761 0 0 0 5.729-1.539c3.8-1.967 5.729-4.917 8.08-8.551 3.121-4.831 5.3-8.251 5.6-13.082.214-3.805-.94-4.788-.128-8.422a22.842 22.842 0 0 0 .812-6.669c-.043-.684-.086-1.24-.128-1.625-1.753 2.009-3.506 4.062-5.259 6.071a21.8 21.8 0 0 0 1.881-5.259 27.955 27.955 0 0 0 .342-7.738c-.042-1.834-.214-7.007-.769-7.007z" opacity="0.13" transform="translate(-924.757 -203.175)"/>
            </g>
        </g>
    </g>
</svg>
